<?xml version="1.0" encoding="utf-8"?>
<!-- Generator: Adobe Illustrator 25.2.3, SVG Export Plug-In . SVG Version: 6.00 Build 0)  -->
<svg version="1.1" id="Layer_1" xmlns="http://www.w3.org/2000/svg" xmlns:xlink="http://www.w3.org/1999/xlink" x="0px" y="0px"
	 viewBox="0 0 993.2 1080" style="enable-background:new 0 0 993.2 1080;" xml:space="preserve">
<style type="text/css">
	.st0{fill:#F9C916;}
	.st1{fill:#F37E3E;}
	.st2{fill:#DF7246;}
	.st3{fill:#797065;}
	.st4{fill:url(#SVGID_1_);}
	.st5{fill:url(#SVGID_2_);}
	.st6{fill:url(#SVGID_3_);}
	.st7{fill:#F58C3E;}
	.st8{fill:#F8A040;}
	.st9{fill:#FEFEFE;}
	.st10{fill:url(#SVGID_4_);}
	.st11{fill:url(#SVGID_5_);}
	.st12{fill:url(#SVGID_6_);}
	.st13{fill:url(#SVGID_7_);}
	.st14{fill:url(#SVGID_8_);}
	.st15{fill:url(#SVGID_9_);}
	.st16{fill:url(#SVGID_10_);}
	.st17{fill:url(#SVGID_11_);}
	.st18{fill:url(#SVGID_12_);}
	.st19{fill:url(#SVGID_13_);}
	.st20{fill:url(#SVGID_14_);}
	.st21{fill:url(#SVGID_15_);}
	.st22{fill:url(#SVGID_16_);}
	.st23{fill:url(#SVGID_17_);}
	.st24{fill:url(#SVGID_18_);}
	.st25{fill:url(#SVGID_19_);}
	.st26{fill:url(#SVGID_20_);}
	.st27{fill:url(#SVGID_21_);}
	.st28{fill:url(#SVGID_22_);}
	.st29{fill:url(#SVGID_23_);}
	.st30{fill:url(#SVGID_24_);}
	.st31{fill:#E5A338;}
	.st32{fill:url(#SVGID_25_);}
</style>
<rect x="-1770.4" y="-62.7" class="st0" width="135.8" height="85.8"/>
<rect x="-1770.4" y="53.8" class="st1" width="151.1" height="95.5"/>
<rect x="-1770.4" y="180" class="st2" width="151.1" height="95.5"/>
<rect x="-1767.8" y="298.1" class="st3" width="140.9" height="89"/>
<g>
	<g>
		<g>
			<linearGradient id="SVGID_1_" gradientUnits="userSpaceOnUse" x1="361.1024" y1="303.4984" x2="361.1024" y2="529.0574">
				<stop  offset="0" style="stop-color:#F9C916"/>
				<stop  offset="1" style="stop-color:#F37E3E"/>
			</linearGradient>
			<path class="st4" d="M350,303.5c-4.2,6.6-6.7,12.7-9.2,18.9c-8.2,20.2-14.2,41.1-16.2,62.9l0,0c-2.1,19.8-2.1,39.5,2.5,59
				c2,14.5,7.1,28,13.4,41.1c7.8,16,17,31.1,29.9,43.7c-2.1-7.7-6.7-14.2-9.9-21.4c-8.8-19.7-15.5-40.1-20.5-61.1
				c-2-14.9-4.1-29.8-4-44.9c-0.1-0.3-0.2-0.5-0.3-0.8c0-0.1,0.2-0.2,0.4-0.3c0.1-4.1,0.3-8.3,0.4-12.4c0-0.8,0-1.6,0-2.5
				c0.2-0.5,0.3-1.1,0.5-1.6h0c3.2-13.6,5.2-27.5,12.2-40.8c2,3.2,3.5,5.6,5.1,8c8.3,12.4,16.8,24.7,28.3,34.5
				c4.4,3.7,9,7.2,16.5,7.2C371.4,368.9,358.3,338,350,303.5z"/>
		</g>
	</g>
	<g>
		<linearGradient id="SVGID_2_" gradientUnits="userSpaceOnUse" x1="508.4775" y1="169.1209" x2="508.4775" y2="515.8448">
			<stop  offset="0" style="stop-color:#F9C916"/>
			<stop  offset="1" style="stop-color:#F37E3E"/>
		</linearGradient>
		<path class="st5" d="M497,254.3c-4.4,22.6-12.1,44-22.4,64.6C466,334,455.8,348,445.5,362c-4.5,6.1-8.5,12.6-11.6,19.6
			c-7.7,14.9-13,30.5-13.9,47.3c-3.3,18.2,0.8,35.5,6.7,52.5c4.3,12.6,10.7,24.3,19.6,34.4c-6.4-23.2-12.2-46.3-12.6-70.5
			c-0.1-0.3-0.2-0.5-0.2-0.8c0-0.1,0.2-0.2,0.3-0.3c0-0.8,0-1.6,0-2.4c0.2-1.4,0.3-2.7,0.4-4.1c1.5-19.3,8.4-36.8,17.8-53.5
			c7.5-10.8,15-21.5,22.4-32.3c6.6-9.7,12.9-19.6,17.4-30.5c7.7-14.4,12.9-29.7,16.8-45.5c1.8-7.1,2.7-9.8,4.6-20.3
			c0.7-3.6,0.8-5.9,1.1-8.5c1.4-10.3,2.2-20.8,2.4-32.3c10,11.2,15.6,23.6,21.4,35.8c1-0.5,2-0.8,3-0.9c-1,0.1-2,0.4-3,0.9
			c6.4,16.4,10.5,33.5,14.4,50.7c2.7,23.9,5.7,47.8,3.3,72c-1.1,11.5-3.4,22.8-5.1,34.2c-4,13.9-8,27.8-12.9,41.3
			c-9.4,21.3-19.6,42.3-32.9,61.7c16.1-4.6,30.9-11,45.3-18.9c22-12,36.5-30,44.2-53.6c3.4-10.4,5.2-21,1.8-32
			c-4.5,17.6-11.8,33.7-22.9,48c-11.2,14.3-24.6,25.7-42.5,34.4c8.1-14.8,15.6-27.9,21.1-42l0,0c5.7-11.7,9.4-24.1,12.8-36.6
			c4.7-14.6,6.9-29.7,8.1-44.9c1.6-21.8,0.8-43.4-4.4-64.7c-3.3-18.2-9-35.5-17.3-52c-3.7-11-10.5-20.3-16.1-30.2
			c-9.8-17.3-22.4-32.6-36.5-46.6c-1-1-1.7-2.7-3.7-2.4c1.1,5.6,2.2,11.1,3.1,16.7C501.7,208.7,500.5,231.5,497,254.3"/>
	</g>
	<g>
		<linearGradient id="SVGID_3_" gradientUnits="userSpaceOnUse" x1="476.8716" y1="26.7359" x2="476.8716" y2="559.1335">
			<stop  offset="0" style="stop-color:#F9C916"/>
			<stop  offset="1" style="stop-color:#F37E3E"/>
		</linearGradient>
		<path class="st6" d="M312.4,253.1c-11.9,16.2-22.5,33.1-30.6,51.5c-9,17.3-15.5,35.4-18.2,54.8c-4.1,20.5-3.6,40.9,0.8,61.3
			c1.7,14.3,5.7,28.1,10.7,41.5c10.1,26.8,24.7,50.7,46.8,69.5c1.6-0.1,2.5,0.6,2.6,2.2l0,0c12.7,11.6,27.4,19.9,43.8,25.2
			c-11-9.3-20.7-19.8-30.9-29.8c-0.7-0.9-1.4-1.9-2.1-2.8c-25.3-29.4-43.2-62.3-49-101.1c-0.3-1.8-0.6-2.9-1.3-4.9
			c-0.5-1.4-0.6-2.2-0.8-3.4c0-1.3,0.1-2.6,0.1-3.5c-0.5-15.3-0.3-30.5,1.3-45.7c0.1-0.4,0.2-0.9,0.3-1.3c0.2-1.2,0.3-2.5,0.5-3.7
			c-1.4,0-2.8,0-4.2-0.1c1.4,0,2.8,0.1,4.2,0.1c3.4-17.6,8.5-34.7,14.3-51.6c1.4-3,2.9-6,4.2-9c6.9-16.5,16-31.8,24.7-47.4
			c0,0,0.1-0.2,0.1-0.2c0.6-1.2,0.9-1.8,1.7-2.7c9.9-14.4,20.4-28.3,33.2-42.6c-0.8,18.6,0.9,35,5.5,51.1
			c4.9,19.7,12.8,38.2,22.1,56.1c2.2,4.2,3.6,2.7,5.5-0.1c8.8-13,17.2-26.2,24.5-40.1c2.7-5.2,6.1-10,7.3-15.9
			c7.2-12.2,11.9-25.5,15.9-38.9c9.1-30,13.4-60.6,8.2-91.9c-3.3-26.8-13.1-51.1-29.2-73.9c8.3,0.7,15.4,2.7,22.4,5.1
			c39,13.3,71.4,36.6,99.6,66.2c15.4,16.2,28.1,34.3,39.8,53.2c0-0.3,0-0.6,0-0.9c0,0.3,0.1,0.6,0,0.9c7.5,14.1,13.7,28.8,20.2,43.4
			c4.4,14.2,9.4,28.2,12.4,42.8c2.3,10.9,4.3,21.8,6.4,32.8c3.4,31,4.3,62.1,1.1,93.2c-3.4,20.2-5.6,40.7-10.7,61
			c4.6-1.1,8-3.1,11.4-5.1c16.3-9.6,29.3-22.9,41.2-37.2c2.3-2.8,2.8-2.5,4,0.6c2.3,6.1,0.1,12.4,1.7,18.4
			c-0.6,39.6-12,76.3-31.2,112.3c1.8-1.4,2.5-1.8,3-2.3c20.4-19.4,35.4-42.1,42.4-69.7c3.2-12.5,5.6-25,4.6-38
			c0-27.9-6.4-54.1-19.2-79.8c-2.6,8.1-4.5,15.2-7.1,21.9c-6,15.4-13.1,30.2-25.7,41.6c-0.3,0.2-0.7,0.4-1,0.6
			c0.1-0.4,0.2-0.9,0.2-1.3c1.7-7.2,3.6-14.4,4.1-21.9c7.5-30.9,6.2-62,2-93.2c-0.7-4.8-1.1-9.7-2-14.5
			c-3.9-21.2-8.8-42.1-17.1-62.2h0c-4-10.2-7.8-20.4-12-30.4c-3-7.1-6.1-14.3-10.6-20.7c-16.3-31.1-39-56.8-66.5-78.4
			c-44.2-34.7-94.9-54.7-149.8-64.9c-5.7-1.1-11.5-1.6-17.3-2.4c1.7,2.4,3.7,3.6,5.7,4.9c23.7,15.8,41.3,36.6,51.4,63.4
			c4.6,12.2,6.6,25,8.5,37.8c1.8,32.1-3.5,63.1-13.2,93.6c-4,12.7-9.6,24.7-13.9,37.2c1.1,0,1.9-0.4,2.6-1c0.3-0.2,0.5-0.5,0.8-0.8
			c-0.2,0.3-0.5,0.5-0.8,0.8c-0.7,0.6-1.6,1-2.6,1c-4.8,7.9-7.7,16.9-13.4,25.1c-1.4-2.9-2.5-5.2-3.7-7.4
			c-3.5-6.8-5.7-12.8-8.1-21.2c-0.2-1.4-0.5-2.6-0.5-2.9c-4.5-17.9-7-34.2-8.6-52.6c-0.7-8.5-1.4-16.9-2.2-26.8
			c-7.5,8.6-14.2,16-20.5,23.6C338.3,218.3,323.9,234.5,312.4,253.1"/>
	</g>
	<g>
		
			<image style="overflow:visible;opacity:0.36;" width="52" height="51" xlink:href="74BF18982DB11381.png"  transform="matrix(1 0 0 1 285.8597 508)">
		</image>
		<g>
			<path class="st2" d="M321.9,531.7c1.6-0.1,2.5,0.6,2.6,2.2C323.6,533.2,322.7,532.4,321.9,531.7z"/>
		</g>
	</g>
	<g>
		
			<image style="overflow:visible;opacity:0.85;" width="50" height="50" xlink:href="74BF18982DB11383.png"  transform="matrix(1 0 0 1 397.8597 421)">
		</image>
		<g>
			<path class="st7" d="M433.7,445.4c-0.1-0.3-0.2-0.5-0.2-0.8c0-0.1,0.2-0.2,0.3-0.3C434,444.7,433.9,445.1,433.7,445.4z"/>
		</g>
	</g>
	<g>
		
			<image style="overflow:visible;opacity:0.85;" width="50" height="50" xlink:href="74BF18982DB11386.png"  transform="matrix(1 0 0 1 299.8597 377)">
		</image>
		<g>
			<path class="st8" d="M335.9,401.8c-0.1-0.3-0.2-0.5-0.3-0.8c0-0.1,0.2-0.2,0.4-0.3C336.1,401,336.1,401.4,335.9,401.8z"/>
		</g>
	</g>
	<g>
		
			<image style="overflow:visible;opacity:0.85;" width="50" height="50" xlink:href="74BF18982DB11387.png"  transform="matrix(1 0 0 1 249.8597 343)">
		</image>
		<g>
			<path class="st8" d="M285.6,367.9c0.1-0.4,0.2-0.9,0.3-1.3C285.8,367,285.7,367.5,285.6,367.9z"/>
		</g>
	</g>
	<g>
		
			<image style="overflow:visible;opacity:0.85;" width="50" height="50" xlink:href="74BF18982DB11382.png"  transform="matrix(1 0 0 1 603.8597 392)">
		</image>
		<g>
			<path class="st9" d="M640.8,416.1c-0.3,0.2-0.7,0.4-1,0.6c0.1-0.4,0.2-0.9,0.2-1.3C640.3,415.6,640.6,415.9,640.8,416.1z"/>
		</g>
	</g>
	<g>
		<g>
			<linearGradient id="SVGID_4_" gradientUnits="userSpaceOnUse" x1="496.5763" y1="531.838" x2="496.5763" y2="743.1887">
				<stop  offset="0" style="stop-color:#DF7246"/>
				<stop  offset="0.1573" style="stop-color:#C36E4A"/>
				<stop  offset="0.4088" style="stop-color:#9D6950"/>
				<stop  offset="0.6412" style="stop-color:#826554"/>
				<stop  offset="0.8455" style="stop-color:#716357"/>
				<stop  offset="0.9996" style="stop-color:#6B6258"/>
			</linearGradient>
			<path class="st10" d="M740.1,703.7C740.1,703.7,740.1,703.7,740.1,703.7C740.1,703.7,740.1,703.7,740.1,703.7
				C740.1,703.7,740.1,703.7,740.1,703.7c4.3-13.9,0.6-27.6-9.6-35.5c-11.7-10.3-25.6-17.2-38.7-25.3c-1-0.6-2-1.3-3.1-1.6
				c-0.9-0.2-1.8-0.7-2.4-1.5c-0.3-0.4-0.7-0.7-1.2-0.8c-0.6-0.3-1.4-0.7-2-1c-0.4-0.3-0.7-0.6-1.1-0.9c-1.3-0.9-2.5-1.8-3.8-2.7
				c-7-7.6-16.6-9.3-25.9-11.6c-6.8-1.7-6.8-1.4-3.4-7.8c2.6-4.9,4.9-9.8,7.2-14.8c5-10.6,3.9-20.1-5.4-28c-2.7-2.3-5.3-4.9-7.9-7.4
				c-5.1-4.5-10.3-9-15.4-13.5c-20.7-18.5-45.4-21.6-71.6-18.1c-3.6,0.5-8,1.1-9.9,4.5c-6.7,12-12.4,24.5-9.6,39
				c0.5,2.5,0.7,5.1,1.6,7.4c1.1,2.7,0.8,4.2-1.9,5.5c-9.1,4.5-18,9.5-27.8,12.6c-7.2,2.3-6.9,2.3-8.3-5.2
				c-2.2-12.7-3.6-25.6-10.8-36.9c-6.9-9.6-15.9-16.3-27.4-19.4c-2.4-0.6-6.2-0.5-8.5,0.4c-5.6,2.2-10.4,0.6-15.1-2.9
				c-4.8-3.7-9.7-3.5-14.6,0c-18.5,12.8-36.7,25.9-54.5,39.6c0.8,0.3,1.6,0.6,2.3,1c0.4,0.2,0.8,0.3,1.2,0.5
				c-0.4-0.1-0.8-0.3-1.2-0.5c-0.8-0.3-1.5-0.7-2.3-1c-10.9,7.4-21.9,14.7-32.8,22.3c-3,2.1-5.8,4.6-7.6,8
				c-5.6,5.7-8.1,12.8-9.1,20.5c-0.9-0.2-1.5-0.2-2-0.4c-17-7.2-29.6-4-40.2,10.7c-4.9,6.8-9.3,14.1-13.1,21.6
				c-5.4,8.4-10.6,16.9-11.9,27.1c-1.7,2.1-1.2,4.3-0.7,6.7c3,12.6,10.3,22.3,20.2,30.2c25.5,20.3,63.6,23.5,90.9,7.4
				c12.3-7.3,20.8-17.2,19.4-32.8c-0.1-1.3,0.1-2.6,0.2-3.9c0.7-0.1,1.2-0.2,1.4-0.1c1.3,0.8,2.7,1.6,4,2.5
				c14.3,9.6,29.2,17.9,46.6,21.1c12,2.1,23.2,1.3,32.9-6.6c2.8-2.2,3.8-1,5.5,1c3.9,4.4,8,8.6,12,13c4.9,5.4,10.8,8.6,18.3,9.2
				c11.1,0.9,22.6,1.3,33.3,4.1c11.2,3,22.4,3.9,33.8,4.1c8.3,0.1,16.3-0.7,23.8-5.4c9.7-6,19.9-11,30.5-15.3
				c6-2.4,11.4-2.9,17.4,0.4c26.9,14.8,54.4,10.3,81.7,1.6c9.1-2.9,14.4-9.8,16.2-19.3c0.5-0.4,0.8-0.9,0.2-1.5
				C740.1,703.7,740.1,703.7,740.1,703.7z M553.2,546.3c0.1-4,1.3-6.5,5.3-7c19-2.4,37.3-1.3,52.9,11.5c8.5,7,17.5,13.2,27.1,18.5
				c1.2-0.3,2.2-0.9,2.9-1.6c-0.8,0.8-1.7,1.3-2.9,1.6c16.5,13.6,15.9,18.3,3.3,35.8c-9.2,12.8-37.2,11.3-45.3-0.4
				c-7.3-10.7-17.4-18.6-30.5-21.7c-4.4-1-6.7-4.6-9.2-7.8C553.3,565.9,553,556.2,553.2,546.3z M596.7,634.4
				c-0.5,0.1-0.9,0.4-1.2,0.7C595.8,634.8,596.2,634.5,596.7,634.4z M383.5,581.3c-0.7-1.5-1.8-2.5-3.2-2.6
				C381.7,578.8,382.8,579.8,383.5,581.3c12.4-7.4,23.4-16.6,34.1-26.1c7.1-6.3,14.3-10.1,24.1-6.5c2.6,1,6,0.9,8.7,0.2
				c14.1-3.7,23.5,2.6,30.7,13.9c1.5-1.9,3.6-1.8,5.6-2c0.4,0,0.7-0.1,1.1-0.2c-0.4,0.1-0.7,0.1-1.1,0.2c-2,0.3-4.1,0.2-5.6,2
				c3.5,15.7,1,30.7-5.1,45.3c-1.1,2.6-2.8,4.9-5.4,6c-5.9,2.6-7.1,7.3-6.3,13c0,0,0,0,0,0c1.1,10.4-0.1,20.2-7.9,28.2
				c-8.1,4.4-16,9.1-25.3,10.7c-21.2,3.7-41.8,2.1-61.6-6.7c0,0,0,0,0,0c-6.7-4-13.2-8.3-18.4-14.3c-10.5-11.9-11.5-20.9-3.5-35.1
				c0,0,0,0,0,0C357.8,598.1,371.5,590.7,383.5,581.3z M366.7,663.6c0.6-0.1,1.2-0.4,1.6-0.7C367.9,663.2,367.3,663.5,366.7,663.6z
				 M369.3,661.5C369.3,661.5,369.3,661.5,369.3,661.5C369.3,661.5,369.3,661.5,369.3,661.5z M336.4,726.7c-20.2,1.4-39.8-2.2-56-16
				c-6-5.1-9.8-11.7-10.1-19.9c4.4-10.7,13.3-17.4,21.7-24.6c-1.1-0.9-2.2-1.6-3.3-2c1.1,0.4,2.3,1.1,3.3,2
				c15.5-12.9,31.1-8.4,46.6-0.2c8.4,5.8,15.7,12.7,21.2,21.3C368.4,708.6,359.2,725.1,336.4,726.7z M603.1,719.8
				c-9.8,2.6-19.5,4.1-29.6,2.8c-5.3-0.7-10.6,0.1-15.8,0.7c-10.3,1.3-14.7-1.4-20-10.3c-5-8.4-11.5-15.6-20.1-20.9
				c-3.4-2.1-6.8-4-10.2-6c-2.4,1.1-4.8,1.8-7.3,2.1c2.5-0.3,4.9-1,7.3-2.1c-4.4-3.9-6.8-8.8-7.5-14.6c-0.6-4.6-1.2-9.2-1.7-13.8
				c0.2-9.4-1.9-19.1,2.2-28.2c0.2-0.3,0.4-0.7,0.6-1c0.2-0.4,0.4-0.8,0.6-1.3c0.3-0.4,0.6-0.8,0.9-1.2c0.3-0.2,0.4-0.5,0.4-0.8
				c3.5-3.9,7.7-6.4,12.7-8.2c10.4-3.8,19.7-9.9,28-17.2c4.7-4.2,8.1-3.1,12.1,0.3c7.4,6.3,13.8,13.4,19.5,21.1
				c5.2,7.2,12.9,11.3,19.4,17c0-1.4,0.3-2.5,1-3.2c-0.7,0.7-1,1.8-1,3.2c7,8.2,13.6,16.7,19.8,25.6c6.5,12.1,11.8,24.5,8.5,38.7
				C619.9,712.5,612.6,717.3,603.1,719.8z M665.5,708.8c-7.2-2.6-14.1-5.9-21.2-8.8c0,0.4-0.1,0.8-0.2,1.1c0.1-0.3,0.2-0.7,0.2-1.1
				c-3.3-4.6-4-10-4.9-15.3c-1.3-8.2-2.4-16.6-7.8-23.4c-3-7-0.9-12.9,4-18.1c2.5-2.7,5.4-5,8.1-7.5c10.8-5.8,20.4-1.3,30,3.6l0,0
				c11.3,10,24.3,17.5,37.6,24.4c4.3,2.2,8.1,5.4,12.1,8.2c1.3,1.9,2.8,3.8,3.9,5.9c5,8.9,4,15.7-3.4,22.7c-1.1,1.1-2.3,2.1-3.4,3.2
				h0C703.1,716,684.6,715.8,665.5,708.8z"/>
			<linearGradient id="SVGID_5_" gradientUnits="userSpaceOnUse" x1="528.4256" y1="614.1154" x2="528.4256" y2="658.8768">
				<stop  offset="0" style="stop-color:#DF7246"/>
				<stop  offset="0.1573" style="stop-color:#C36E4A"/>
				<stop  offset="0.4088" style="stop-color:#9D6950"/>
				<stop  offset="0.6412" style="stop-color:#826554"/>
				<stop  offset="0.8455" style="stop-color:#716357"/>
				<stop  offset="0.9996" style="stop-color:#6B6258"/>
			</linearGradient>
			<path class="st11" d="M544,614.3c-3.7-1.1-5.8,2-7.1,4.8c-2.3,4.8-6.8,6.9-11.1,9.1c-3.3,1.7-6.8,3.1-9.8,5.2
				c-6.3,4.4-8.3,14.6-4.4,20.5c3.6,5.6,10.8,6.5,18.4,2c12.1-7.1,17.4-18.1,17.4-31.9c0-0.8,0-1.6,0-2.4
				C547.1,618.9,547.5,615.3,544,614.3z"/>
			<linearGradient id="SVGID_6_" gradientUnits="userSpaceOnUse" x1="534.9544" y1="660.67" x2="534.9544" y2="691.3315">
				<stop  offset="0" style="stop-color:#DF7246"/>
				<stop  offset="0.1573" style="stop-color:#C36E4A"/>
				<stop  offset="0.4088" style="stop-color:#9D6950"/>
				<stop  offset="0.6412" style="stop-color:#826554"/>
				<stop  offset="0.8455" style="stop-color:#716357"/>
				<stop  offset="0.9996" style="stop-color:#6B6258"/>
			</linearGradient>
			<path class="st12" d="M542.6,663.9c0.2-1.4,0.8-3.9-1.6-3c-5.1,1.9-10,4.5-13.7,8.8c-1.1,1.3-0.7,2.7,0.3,3.7
				c4.3,4.1,7.5,8.7,8.2,15c0.3,2.3,3,3.6,5.6,2.9c2.4-0.6,2.1-2.6,1.5-4.3C540,679.2,541.4,671.5,542.6,663.9z"/>
			<linearGradient id="SVGID_7_" gradientUnits="userSpaceOnUse" x1="571.0295" y1="697.9944" x2="571.0295" y2="713.5029">
				<stop  offset="0" style="stop-color:#DF7246"/>
				<stop  offset="0.1573" style="stop-color:#C36E4A"/>
				<stop  offset="0.4088" style="stop-color:#9D6950"/>
				<stop  offset="0.6412" style="stop-color:#826554"/>
				<stop  offset="0.8455" style="stop-color:#716357"/>
				<stop  offset="0.9996" style="stop-color:#6B6258"/>
			</linearGradient>
			<path class="st13" d="M566.3,698c-2.6,0-5.6-0.3-5.8,3.3c-0.2,3.8-0.8,8.4,3.9,10.1c3.4,1.2,7.3,1.4,11.3,2.1
				c2.5-0.4,6.7,0.6,6-4.4C581.2,705.5,570.3,698,566.3,698z"/>
			<linearGradient id="SVGID_8_" gradientUnits="userSpaceOnUse" x1="603.7859" y1="696.2188" x2="603.7859" y2="707.742">
				<stop  offset="0" style="stop-color:#DF7246"/>
				<stop  offset="0.1573" style="stop-color:#C36E4A"/>
				<stop  offset="0.4088" style="stop-color:#9D6950"/>
				<stop  offset="0.6412" style="stop-color:#826554"/>
				<stop  offset="0.8455" style="stop-color:#716357"/>
				<stop  offset="0.9996" style="stop-color:#6B6258"/>
			</linearGradient>
			<path class="st14" d="M609.8,696.5c-2.8,0.8-5.7,1.8-8.7,1.3c-4.8-0.7-7.1,1.4-6.9,5.7c-1,3.6,0.9,5.2,3.1,3.6
				c4.4-3.1,8.9-5.2,14.1-6.4c1.3-0.3,2.5-1.5,1.9-3.1C612.7,696,611.3,696.1,609.8,696.5z"/>
			<linearGradient id="SVGID_9_" gradientUnits="userSpaceOnUse" x1="556.1984" y1="673.2224" x2="556.1984" y2="686.006">
				<stop  offset="0" style="stop-color:#DF7246"/>
				<stop  offset="0.1573" style="stop-color:#C36E4A"/>
				<stop  offset="0.4088" style="stop-color:#9D6950"/>
				<stop  offset="0.6412" style="stop-color:#826554"/>
				<stop  offset="0.8455" style="stop-color:#716357"/>
				<stop  offset="0.9996" style="stop-color:#6B6258"/>
			</linearGradient>
			<path class="st15" d="M556.6,673.2c-3.6-0.1-4.7,3.9-4.9,7c-0.3,4.1,2.9,5.6,6.1,5.7c3.5,0.1,2.3-3.3,2.8-5.5
				C560,677.7,560.8,673.3,556.6,673.2z"/>
			<linearGradient id="SVGID_10_" gradientUnits="userSpaceOnUse" x1="655.2453" y1="649.3958" x2="655.2453" y2="678.9633">
				<stop  offset="0" style="stop-color:#DF7246"/>
				<stop  offset="0.1573" style="stop-color:#C36E4A"/>
				<stop  offset="0.4088" style="stop-color:#9D6950"/>
				<stop  offset="0.6412" style="stop-color:#826554"/>
				<stop  offset="0.8455" style="stop-color:#716357"/>
				<stop  offset="0.9996" style="stop-color:#6B6258"/>
			</linearGradient>
			<path class="st16" d="M669.9,672.7c0.3-2.6-2-3.7-4-4.5c-6.7-2.5-11.3-6.9-13.5-13.7c-0.3-1.1-1.1-2.1-1.9-3
				c-1.9-2.3-4.2-2.8-6.7-1.1c-2.3,1.5-4.2,3.5-2.8,6.3c2.2,4.2,1.8,8.8,2.4,13.2c1,7.4,2.9,9,10.3,9c4-0.1,7.8-0.7,11.5-2.2
				C667.4,676,669.6,675.1,669.9,672.7z"/>
			<linearGradient id="SVGID_11_" gradientUnits="userSpaceOnUse" x1="676.665" y1="687.4371" x2="676.665" y2="706.2716">
				<stop  offset="0" style="stop-color:#DF7246"/>
				<stop  offset="0.1573" style="stop-color:#C36E4A"/>
				<stop  offset="0.4088" style="stop-color:#9D6950"/>
				<stop  offset="0.6412" style="stop-color:#826554"/>
				<stop  offset="0.8455" style="stop-color:#716357"/>
				<stop  offset="0.9996" style="stop-color:#6B6258"/>
			</linearGradient>
			<path class="st17" d="M676.2,689.4c-2.6-1.5-5.2-3-8.2-1.1c-3,1.9-3.8,4.8-3.9,8c-0.1,4,2.1,6.3,5.9,6.7c5,0.6,10.1,1.2,14.9,2.8
				c1.3,0.4,2.9,0.8,3.8-0.5c1.1-1.4,0.3-3-0.4-4.4C685.5,695.9,681.1,692.4,676.2,689.4z"/>
			<linearGradient id="SVGID_12_" gradientUnits="userSpaceOnUse" x1="702.6154" y1="689.4286" x2="702.6154" y2="703.5853">
				<stop  offset="0" style="stop-color:#DF7246"/>
				<stop  offset="0.1573" style="stop-color:#C36E4A"/>
				<stop  offset="0.4088" style="stop-color:#9D6950"/>
				<stop  offset="0.6412" style="stop-color:#826554"/>
				<stop  offset="0.8455" style="stop-color:#716357"/>
				<stop  offset="0.9996" style="stop-color:#6B6258"/>
			</linearGradient>
			<path class="st18" d="M710,689.8c-4.2,4.9-10,4.7-15.6,5.5c-1.4,0.2-2.7,0.9-2.9,2.5c-0.3,1.8,0.7,3.2,2.2,3.8
				c1.9,0.9,4,1.4,5.7,1.9c5.7-1.1,10.9-2.4,13.7-7.7c1-1.9,0.7-3.8-0.5-5.5C712,689.5,710.7,689.1,710,689.8z"/>
			<linearGradient id="SVGID_13_" gradientUnits="userSpaceOnUse" x1="673.7806" y1="656.7423" x2="673.7806" y2="668.7212">
				<stop  offset="0" style="stop-color:#DF7246"/>
				<stop  offset="0.1573" style="stop-color:#C36E4A"/>
				<stop  offset="0.4088" style="stop-color:#9D6950"/>
				<stop  offset="0.6412" style="stop-color:#826554"/>
				<stop  offset="0.8455" style="stop-color:#716357"/>
				<stop  offset="0.9996" style="stop-color:#6B6258"/>
			</linearGradient>
			<path class="st19" d="M679,668.7c0.9-0.2,1.9-0.1,2.7-0.6c0.6-0.4,0.5-1.5-0.2-2c-4.4-3.2-8.5-6.9-13.5-9.2
				c-0.6-0.3-1.6-0.1-2.2,0.3c-0.7,0.5-0.3,1.4,0.2,2C669.4,663.6,673.1,667.6,679,668.7z"/>
			<linearGradient id="SVGID_14_" gradientUnits="userSpaceOnUse" x1="300.4776" y1="688.3642" x2="300.4776" y2="711.8282">
				<stop  offset="0" style="stop-color:#DF7246"/>
				<stop  offset="0.1573" style="stop-color:#C36E4A"/>
				<stop  offset="0.4088" style="stop-color:#9D6950"/>
				<stop  offset="0.6412" style="stop-color:#826554"/>
				<stop  offset="0.8455" style="stop-color:#716357"/>
				<stop  offset="0.9996" style="stop-color:#6B6258"/>
			</linearGradient>
			<path class="st20" d="M293.6,691.5c-1.7-3.3-5.4-4.5-9-1.3c-3.4,3-3.8,6.5-0.8,9.8c6.5,7,14.4,11.4,24.1,11.8
				c3.7,0.2,7.2-0.8,11.2-4.6C306.5,707.3,298.7,701.7,293.6,691.5z"/>
			<linearGradient id="SVGID_15_" gradientUnits="userSpaceOnUse" x1="323.3437" y1="671.38" x2="323.3437" y2="689.3435">
				<stop  offset="0" style="stop-color:#DF7246"/>
				<stop  offset="0.1573" style="stop-color:#C36E4A"/>
				<stop  offset="0.4088" style="stop-color:#9D6950"/>
				<stop  offset="0.6412" style="stop-color:#826554"/>
				<stop  offset="0.8455" style="stop-color:#716357"/>
				<stop  offset="0.9996" style="stop-color:#6B6258"/>
			</linearGradient>
			<path class="st21" d="M332.8,683.1c1.5-4.1-2.2-6.3-4.6-8.7c-1.7-1.7-4-2.8-6.3-2.9c-3.3-0.2-8.6,0.3-8.3,3.4
				c0.6,4.8,4,9.3,6.4,13.8c0.3,0.6,1.8,0.5,2.5,0.7C326.9,688.5,331.2,687.4,332.8,683.1z"/>
			<linearGradient id="SVGID_16_" gradientUnits="userSpaceOnUse" x1="331.9426" y1="709.3469" x2="331.9426" y2="716.4506">
				<stop  offset="0" style="stop-color:#DF7246"/>
				<stop  offset="0.1573" style="stop-color:#C36E4A"/>
				<stop  offset="0.4088" style="stop-color:#9D6950"/>
				<stop  offset="0.6412" style="stop-color:#826554"/>
				<stop  offset="0.8455" style="stop-color:#716357"/>
				<stop  offset="0.9996" style="stop-color:#6B6258"/>
			</linearGradient>
			<path class="st22" d="M334.1,709.4c-3.4,0.3-7.2,0.9-8.1,4.5c-0.6,2.4,2.9,1.7,4.8,2.6c2.7-0.9,6.5-0.6,7.2-4.5
				C338.3,710,335.9,709.2,334.1,709.4z"/>
			<linearGradient id="SVGID_17_" gradientUnits="userSpaceOnUse" x1="460.2613" y1="558.1948" x2="460.2613" y2="606.1913">
				<stop  offset="0" style="stop-color:#DF7246"/>
				<stop  offset="0.1573" style="stop-color:#C36E4A"/>
				<stop  offset="0.4088" style="stop-color:#9D6950"/>
				<stop  offset="0.6412" style="stop-color:#826554"/>
				<stop  offset="0.8455" style="stop-color:#716357"/>
				<stop  offset="0.9996" style="stop-color:#6B6258"/>
			</linearGradient>
			<path class="st23" d="M452.7,583.4c-0.9,4.9-2.8,9.4-4.7,13.9c-2.4,5.5-0.8,8,5.2,8.7c13.6,1.6,20.7-4.8,20.7-18.7
				c0-5.6-0.8-11-3.1-16.1c-3.4-7.5-9.1-12.3-17.5-12.9c-2.3-0.2-4.9-0.2-6.3,2.3c-1.4,2.5,0.1,4.5,1.8,6.3
				C453.3,571.6,453.8,577.3,452.7,583.4z"/>
			<linearGradient id="SVGID_18_" gradientUnits="userSpaceOnUse" x1="376.9377" y1="597.5579" x2="376.9377" y2="637.0142">
				<stop  offset="0" style="stop-color:#DF7246"/>
				<stop  offset="0.1573" style="stop-color:#C36E4A"/>
				<stop  offset="0.4088" style="stop-color:#9D6950"/>
				<stop  offset="0.6412" style="stop-color:#826554"/>
				<stop  offset="0.8455" style="stop-color:#716357"/>
				<stop  offset="0.9996" style="stop-color:#6B6258"/>
			</linearGradient>
			<path class="st24" d="M368.2,634.6c4.2,2.1,9.2,4.1,13.2,0.2c4-3.9,0.5-8.1-1.6-11.7c-2.2-3.8-1.7-6.3,2-8.8
				c4.2-2.8,7.9-6.4,10.9-10.6c1-1.4,2.2-3,1.1-4.8c-0.9-1.6-2.7-1.4-4.2-1.3c-6.7,0.2-13.2,1.5-19.4,4.1c-7,3-10.6,8.4-10.5,19
				C359.8,624.7,361.3,631.2,368.2,634.6z"/>
			<linearGradient id="SVGID_19_" gradientUnits="userSpaceOnUse" x1="419.8793" y1="581.9035" x2="419.8793" y2="603.7629">
				<stop  offset="0" style="stop-color:#DF7246"/>
				<stop  offset="0.1573" style="stop-color:#C36E4A"/>
				<stop  offset="0.4088" style="stop-color:#9D6950"/>
				<stop  offset="0.6412" style="stop-color:#826554"/>
				<stop  offset="0.8455" style="stop-color:#716357"/>
				<stop  offset="0.9996" style="stop-color:#6B6258"/>
			</linearGradient>
			<path class="st25" d="M416.6,602.4c2-5.5,6.7-7.8,10.4-11.4c3.2-3,2.4-7.7-0.9-8.8c-6.6-2.1-15.7,4.9-15.4,13.4
				c0.2,1,0.5,3.6,1.4,5.9C413,603.7,415.7,604.8,416.6,602.4z"/>
			<linearGradient id="SVGID_20_" gradientUnits="userSpaceOnUse" x1="407.8142" y1="638.3328" x2="407.8142" y2="652.9043">
				<stop  offset="0" style="stop-color:#DF7246"/>
				<stop  offset="0.1573" style="stop-color:#C36E4A"/>
				<stop  offset="0.4088" style="stop-color:#9D6950"/>
				<stop  offset="0.6412" style="stop-color:#826554"/>
				<stop  offset="0.8455" style="stop-color:#716357"/>
				<stop  offset="0.9996" style="stop-color:#6B6258"/>
			</linearGradient>
			<path class="st26" d="M404.2,650.9c3.5,2.3,7.3,2.8,11,0.7c1.9-1,3.3-3.3,1.4-4.8c-4.5-3.5-8.1-8.7-13.2-8.4
				c-3.4-0.2-5.5-0.1-5.3,2.3C398.5,645,400.6,648.5,404.2,650.9z"/>
			<linearGradient id="SVGID_21_" gradientUnits="userSpaceOnUse" x1="410.4916" y1="615.9213" x2="410.4916" y2="626.0338">
				<stop  offset="0" style="stop-color:#DF7246"/>
				<stop  offset="0.1573" style="stop-color:#C36E4A"/>
				<stop  offset="0.4088" style="stop-color:#9D6950"/>
				<stop  offset="0.6412" style="stop-color:#826554"/>
				<stop  offset="0.8455" style="stop-color:#716357"/>
				<stop  offset="0.9996" style="stop-color:#6B6258"/>
			</linearGradient>
			<path class="st27" d="M407.6,626c3.6,0.2,9.8-4.1,9.9-7c0.1-2.9-2.3-2.6-4-3.1c-4.8-0.1-9.9,2.7-10.1,5.6
				C403.3,624.4,404.8,625.9,407.6,626z"/>
			<linearGradient id="SVGID_22_" gradientUnits="userSpaceOnUse" x1="589.9348" y1="558.5273" x2="589.9348" y2="583.2081">
				<stop  offset="0" style="stop-color:#DF7246"/>
				<stop  offset="0.1573" style="stop-color:#C36E4A"/>
				<stop  offset="0.4088" style="stop-color:#9D6950"/>
				<stop  offset="0.6412" style="stop-color:#826554"/>
				<stop  offset="0.8455" style="stop-color:#716357"/>
				<stop  offset="0.9996" style="stop-color:#6B6258"/>
			</linearGradient>
			<path class="st28" d="M583,576.5c4.5,0.7,8.5,1.8,12.1,5.1c2.4,2.3,6.4,2.2,9-0.7c1.9-2,0.6-4.2-1-5.7c-4.5-4.3-9.1-8.5-14-12.4
				c-2.9-2.3-6.3-3.9-10.1-4.3c-1.6-0.1-3.1,0-3.9,1.8C573.4,564.2,578.9,575.8,583,576.5z"/>
			<linearGradient id="SVGID_23_" gradientUnits="userSpaceOnUse" x1="616.7261" y1="586.1667" x2="616.7261" y2="602.3658">
				<stop  offset="0" style="stop-color:#DF7246"/>
				<stop  offset="0.1573" style="stop-color:#C36E4A"/>
				<stop  offset="0.4088" style="stop-color:#9D6950"/>
				<stop  offset="0.6412" style="stop-color:#826554"/>
				<stop  offset="0.8455" style="stop-color:#716357"/>
				<stop  offset="0.9996" style="stop-color:#6B6258"/>
			</linearGradient>
			<path class="st29" d="M617.7,602.4c3.9-0.2,5.8-2.7,6.2-5.8c0.2-4.7-6.1-10.3-10.8-10.4c-2.5-0.1-3.5,1.3-3.7,3.6
				C609.1,595.3,613.8,602.5,617.7,602.4z"/>
		</g>
	</g>
</g>
<g>
	<linearGradient id="SVGID_24_" gradientUnits="userSpaceOnUse" x1="-2168.8127" y1="1167.3652" x2="-2168.8127" y2="1165.0404">
		<stop  offset="0" style="stop-color:#E5A338"/>
		<stop  offset="1" style="stop-color:#FBDA86"/>
	</linearGradient>
	<path class="st30" d="M-2170.2,1165.1c1.7-0.1,2.6,0.6,2.7,2.3C-2168.4,1166.6-2169.3,1165.8-2170.2,1165.1z"/>
	<g>
		<g>
			<path class="st31" d="M-2140.6,925.4c-4.4,6.9-7.1,13.4-9.7,19.8c-8.6,21.3-14.9,43.2-17,66.1l0,0c-2.3,20.8-2.2,41.5,2.6,62
				c2.1,15.2,7.4,29.4,14.1,43.1c8.1,16.8,17.9,32.6,31.3,45.9c-2.2-8.1-7-14.9-10.4-22.4c-9.3-20.7-16.3-42.1-21.5-64.1
				c-2.1-15.6-4.3-31.3-4.2-47.1c-0.1-0.3-0.2-0.6-0.3-0.9c0-0.1,0.2-0.2,0.4-0.3c0.2-4.3,0.3-8.7,0.5-13c0-0.9,0-1.7,0-2.6
				c0.2-0.6,0.4-1.1,0.5-1.7l0,0c3.3-14.3,5.5-28.9,12.8-42.8c2.1,3.3,3.7,5.9,5.3,8.4c8.7,13.1,17.7,25.9,29.7,36.2
				c4.6,3.9,9.5,7.5,17.3,7.5C-2118.2,994.2-2131.9,961.7-2140.6,925.4z"/>
		</g>
	</g>
	<g>
		<g>
			<path class="st31" d="M-1986.2,873.8c-4.7,23.7-12.7,46.2-23.5,67.8c-9.1,15.8-19.8,30.6-30.6,45.3c-4.8,6.4-8.9,13.3-12.2,20.6
				c-8.1,15.6-13.6,32-14.6,49.7c-3.4,19.1,0.9,37.3,7,55.1c4.6,13.3,11.2,25.5,20.6,36.1c-6.7-24.3-12.8-48.6-13.2-74
				c-0.1-0.3-0.2-0.5-0.2-0.8c0-0.1,0.2-0.2,0.3-0.3c0-0.8,0-1.7,0-2.5c0.2-1.4,0.4-2.9,0.5-4.3c1.6-20.3,8.8-38.6,18.7-56.2
				c7.9-11.3,15.8-22.5,23.6-33.9c7-10.2,13.6-20.6,18.3-32.1c8.1-15.1,13.5-31.2,17.6-47.7c1.9-7.5,2.8-10.3,4.8-21.4
				c0.8-3.8,0.8-6.2,1.2-8.9c1.5-10.9,2.3-21.8,2.6-33.9c10.5,11.8,16.4,24.8,22.5,37.5c1-0.5,2.1-0.8,3.2-0.9
				c-1.1,0.2-2.1,0.4-3.2,0.9c6.7,17.3,11.1,35.2,15.1,53.2c2.8,25.1,6,50.2,3.5,75.6c-1.2,12.1-3.6,23.9-5.3,35.9
				c-4.2,14.6-8.4,29.1-13.6,43.4c-9.9,22.4-20.5,44.4-34.5,64.8c16.9-4.8,32.5-11.6,47.5-19.8c23.1-12.6,38.3-31.5,46.4-56.3
				c3.6-11,5.5-22.1,1.9-33.6c-4.8,18.5-12.4,35.4-24.1,50.4c-11.7,15-25.9,27-44.6,36.1c8.5-15.6,16.4-29.3,22.1-44.1l0,0
				c6-12.3,9.9-25.3,13.4-38.4c4.9-15.4,7.3-31.2,8.5-47.2c1.7-22.9,0.8-45.6-4.6-68c-3.4-19.1-9.4-37.3-18.1-54.6
				c-3.8-11.5-11-21.3-16.9-31.7c-10.3-18.1-23.5-34.3-38.3-49c-1.1-1-1.8-2.8-3.9-2.6c1.1,5.9,2.3,11.7,3.3,17.5
				C-1981.4,825.9-1982.6,849.9-1986.2,873.8"/>
		</g>
	</g>
	<g>
		<path class="st31" d="M-2180.1,872.5c-12.5,17-23.6,34.8-32.1,54.1c-9.4,18.2-16.2,37.2-19.2,57.5c-4.4,21.5-3.7,43,0.8,64.4
			c1.8,15,6,29.5,11.3,43.6c10.6,28.1,25.9,53.3,49.2,73c1.7-0.1,2.6,0.6,2.7,2.3l0,0c13.4,12.2,28.8,20.9,46,26.5
			c-11.5-9.8-21.7-20.8-32.4-31.3c-0.7-1-1.4-2-2.2-2.9c-26.5-30.8-45.4-65.4-51.4-106.2c-0.3-1.9-0.6-3-1.3-5.1
			c-0.5-1.5-0.6-2.3-0.8-3.6c0-1.4,0.1-2.7,0.1-3.7c-0.5-16-0.3-32,1.3-48c0.1-0.5,0.2-0.9,0.3-1.4c0.2-1.3,0.4-2.6,0.5-3.9
			c-1.5,0-3,0-4.4-0.1c1.5,0,3,0.1,4.4,0.1c3.6-18.5,8.9-36.4,15-54.2c1.5-3.1,3-6.3,4.4-9.5c7.3-17.3,16.8-33.4,25.9-49.8
			c0,0,0.1-0.2,0.1-0.2c0.6-1.3,0.9-1.8,1.8-2.9c10.4-15.1,21.4-29.7,34.9-44.8c-0.8,19.5,1,36.8,5.8,53.6
			c5.2,20.7,13.4,40.1,23.2,59c2.3,4.4,3.8,2.8,5.8-0.1c9.2-13.6,18.1-27.5,25.8-42.1c2.9-5.4,6.4-10.5,7.6-16.7
			c7.6-12.8,12.5-26.7,16.7-40.9c9.5-31.5,14.1-63.6,8.6-96.5c-3.5-28.1-13.7-53.7-30.7-77.6c8.7,0.7,16.2,2.9,23.5,5.3
			c41,14,75,38.4,104.6,69.5c16.2,17,29.5,36,41.8,55.9c0-0.3,0-0.6,0-1c0,0.3,0.1,0.7,0,1c7.9,14.8,14.4,30.3,21.3,45.6
			c4.6,14.9,9.9,29.6,13.1,44.9c2.4,11.4,4.5,22.9,6.7,34.4c3.6,32.6,4.5,65.2,1.2,97.9c-3.6,21.2-5.9,42.7-11.3,64.1
			c4.9-1.1,8.4-3.3,12-5.4c17.1-10.1,30.7-24,43.3-39.1c2.4-2.9,2.9-2.7,4.2,0.7c2.5,6.4,0.1,13,1.7,19.4
			c-0.6,41.6-12.6,80.1-32.8,118c1.9-1.5,2.6-1.9,3.1-2.4c21.4-20.4,37.2-44.2,44.5-73.2c3.3-13.1,5.8-26.3,4.9-39.9
			c0.1-29.3-6.7-56.8-20.2-83.8c-2.7,8.6-4.7,15.9-7.4,23c-6.3,16.2-13.8,31.7-27,43.7c-0.4,0.2-0.7,0.4-1.1,0.6
			c0.1-0.5,0.2-0.9,0.3-1.4c1.8-7.6,3.8-15.1,4.3-23c7.8-32.5,6.5-65.1,2.1-97.9c-0.7-5.1-1.2-10.2-2.1-15.2
			c-4.1-22.3-9.3-44.3-18-65.3h0c-4.2-10.7-8.2-21.4-12.6-32c-3.2-7.5-6.4-15-11.1-21.8c-17.1-32.6-41-59.7-69.8-82.3
			c-46.4-36.4-99.7-57.5-157.3-68.2c-6-1.1-12.1-1.7-18.2-2.6c1.8,2.5,3.9,3.8,6,5.2c24.9,16.6,43.4,38.4,53.9,66.6
			c4.8,12.8,6.9,26.3,9,39.7c1.9,33.7-3.6,66.3-13.9,98.3c-4.2,13.3-10.1,26-14.6,39.1c1.1,0,2-0.4,2.8-1c0.3-0.2,0.6-0.5,0.8-0.8
			c-0.3,0.3-0.5,0.6-0.8,0.8c-0.7,0.6-1.6,1-2.8,1c-5,8.3-8.1,17.8-14.1,26.3c-1.5-3-2.7-5.4-3.9-7.8c-3.7-7.1-6-13.5-8.5-22.2
			c-0.2-1.5-0.5-2.8-0.6-3.1c-4.7-18.8-7.3-35.9-9-55.2c-0.8-8.9-1.4-17.8-2.3-28.2c-7.9,9-14.9,16.8-21.6,24.8
			C-2152.9,836-2168,853-2180.1,872.5"/>
	</g>
	<path class="st31" d="M-2052.7,1074.4c-0.1-0.3-0.2-0.5-0.2-0.8c0-0.1,0.2-0.2,0.3-0.3C-2052.5,1073.7-2052.5,1074.1-2052.7,1074.4
		z"/>
	<g>
		
			<image style="overflow:visible;opacity:0.56;" width="50" height="51" xlink:href="74BF18982DB1138D.png"  transform="matrix(1 0 0 1 -2191.3269 1003.538)">
		</image>
		<g>
			<path class="st31" d="M-2155.4,1028.6c-0.1-0.3-0.2-0.6-0.3-0.9c0-0.1,0.2-0.2,0.4-0.3
				C-2155.2,1027.9-2155.2,1028.3-2155.4,1028.6z"/>
		</g>
	</g>
	<g>
		
			<image style="overflow:visible;opacity:0.56;" width="49" height="50" xlink:href="74BF18982DB1138E.png"  transform="matrix(1 0 0 1 -2243.3269 968.538)">
		</image>
		<g>
			<path class="st31" d="M-2208.3,993.1c0.1-0.5,0.2-0.9,0.3-1.4C-2208,992.2-2208.1,992.6-2208.3,993.1z"/>
		</g>
	</g>
	<path class="st31" d="M-1835.2,1043.7c-0.4,0.2-0.7,0.4-1.1,0.6c0.1-0.5,0.2-0.9,0.3-1.4
		C-1835.8,1043.2-1835.5,1043.4-1835.2,1043.7z"/>
	<g>
		<g>
			<path class="st31" d="M-1731,1345.6C-1731,1345.6-1731,1345.6-1731,1345.6C-1731,1345.6-1731,1345.6-1731,1345.6
				C-1731,1345.6-1731,1345.6-1731,1345.6c4.6-14.6,0.7-29-10.1-37.3c-12.3-10.8-26.9-18.1-40.6-26.6c-1-0.6-2.1-1.4-3.2-1.7
				c-1-0.2-1.9-0.8-2.5-1.6c-0.3-0.4-0.7-0.7-1.2-0.9c-0.6-0.3-1.5-0.8-2.1-1.1c-0.4-0.3-0.8-0.6-1.1-0.9c-1.3-0.9-2.6-1.9-4-2.8
				c-7.3-7.9-17.4-9.7-27.2-12.1c-7.2-1.8-7.1-1.5-3.6-8.2c2.7-5.1,5.1-10.3,7.6-15.5c5.3-11.2,4.1-21.1-5.6-29.4
				c-2.9-2.5-5.5-5.2-8.3-7.7c-5.4-4.7-10.8-9.4-16.2-14.2c-21.8-19.4-47.6-22.6-75.2-19c-3.8,0.5-8.4,1.1-10.4,4.7
				c-7.1,12.6-13,25.7-10.1,40.9c0.5,2.6,0.7,5.4,1.7,7.8c1.2,2.8,0.9,4.4-2,5.8c-9.6,4.7-18.9,9.9-29.1,13.3
				c-7.5,2.5-7.3,2.4-8.7-5.5c-2.4-13.3-3.8-26.9-11.4-38.7c-7.3-10.1-16.7-17.2-28.8-20.4c-2.5-0.7-6.6-0.5-9,0.4
				c-5.9,2.4-11,0.6-15.8-3.1c-5.1-3.9-10.2-3.6-15.4-0.1c-19.4,13.4-38.6,27.2-57.3,41.6c0.8,0.3,1.6,0.7,2.4,1
				c0.4,0.2,0.8,0.3,1.2,0.5c-0.4-0.1-0.8-0.3-1.2-0.5c-0.8-0.3-1.6-0.7-2.4-1c-11.5,7.8-23,15.5-34.4,23.4c-3.1,2.2-6,4.9-7.9,8.4
				c-5.9,6-8.5,13.4-9.6,21.6c-0.9-0.2-1.6-0.2-2.1-0.4c-17.8-7.6-31.1-4.2-42.2,11.2c-5.2,7.2-9.8,14.8-13.8,22.7
				c-5.7,8.8-11.1,17.8-12.5,28.5c-1.8,2.2-1.3,4.5-0.7,7c3.1,13.2,10.8,23.4,21.2,31.7c26.8,21.3,66.8,24.6,95.5,7.7
				c13-7.6,21.8-18.1,20.4-34.4c-0.1-1.4,0.1-2.7,0.2-4.1c0.8-0.1,1.2-0.2,1.5-0.1c1.4,0.8,2.8,1.7,4.2,2.6
				c15.1,10.1,30.7,18.8,48.9,22.1c12.6,2.3,24.3,1.4,34.6-6.9c2.9-2.3,4-1.1,5.8,1c4.1,4.7,8.4,9.1,12.6,13.6
				c5.2,5.7,11.4,9,19.2,9.7c11.7,1,23.7,1.3,34.9,4.3c11.8,3.1,23.5,4.1,35.4,4.3c8.7,0.1,17.1-0.7,25-5.6
				c10.1-6.3,20.9-11.6,32-16.1c6.3-2.6,12-3,18.3,0.4c28.2,15.5,57.1,10.8,85.8,1.6c9.6-3.1,15.2-10.3,17.1-20.2
				c0.5-0.5,0.8-0.9,0.2-1.6C-1731,1345.6-1731,1345.6-1731,1345.6z M-1927.3,1180.4c0.1-4.2,1.4-6.9,5.6-7.4
				c19.9-2.5,39.2-1.3,55.5,12.1c8.9,7.4,18.4,13.9,28.5,19.4c1.2-0.4,2.3-0.9,3.1-1.7c-0.8,0.8-1.8,1.4-3.1,1.7
				c17.3,14.2,16.7,19.2,3.5,37.6c-9.6,13.4-39.1,11.8-47.5-0.5c-7.7-11.3-18.3-19.5-32-22.8c-4.6-1.1-7-4.8-9.7-8.2
				C-1927.1,1201-1927.5,1190.8-1927.3,1180.4z M-1881.6,1272.9c-0.5,0.1-0.9,0.4-1.2,0.7C-1882.5,1273.3-1882.1,1273-1881.6,1272.9
				z M-2105.4,1217.2c-0.7-1.6-1.9-2.7-3.3-2.7C-2107.4,1214.5-2106.1,1215.6-2105.4,1217.2c13-7.8,24.5-17.4,35.8-27.4
				c7.4-6.6,15-10.6,25.3-6.8c2.7,1,6.3,1,9.2,0.2c14.8-3.9,24.6,2.8,32.3,14.5c1.5-2,3.8-1.9,5.9-2.1c0.4,0,0.8-0.1,1.1-0.2
				c-0.4,0.1-0.7,0.1-1.1,0.2c-2.1,0.3-4.3,0.2-5.9,2.1c3.7,16.5,1,32.2-5.4,47.6c-1.1,2.7-2.9,5.1-5.6,6.3
				c-6.2,2.7-7.4,7.7-6.6,13.7c0,0,0,0,0,0c1.1,10.9-0.1,21.2-8.3,29.6c-8.5,4.6-16.8,9.5-26.5,11.2c-22.3,3.9-43.9,2.2-64.7-7.1
				c0,0,0,0,0,0c-7.1-4.2-13.8-8.7-19.4-15c-11.1-12.5-12.1-21.9-3.6-36.9c0,0,0,0,0,0C-2132.4,1234.8-2118.1,1227-2105.4,1217.2z
				 M-2123.1,1303.6c0.7-0.2,1.2-0.4,1.7-0.8C-2121.9,1303.2-2122.4,1303.4-2123.1,1303.6z M-2120.4,1301.3
				C-2120.4,1301.3-2120.4,1301.3-2120.4,1301.3C-2120.4,1301.3-2120.4,1301.3-2120.4,1301.3z M-2154.9,1369.9
				c-21.2,1.5-41.8-2.3-58.8-16.8c-6.3-5.4-10.3-12.3-10.6-20.9c4.6-11.2,14-18.3,22.8-25.8c-1.1-1-2.3-1.7-3.5-2.1
				c1.2,0.5,2.4,1.1,3.5,2.1c16.3-13.6,32.6-8.8,49-0.3c8.8,6.1,16.5,13.3,22.3,22.4C-2121.3,1350.8-2130.9,1368.2-2154.9,1369.9z
				 M-1874.8,1362.6c-10.2,2.7-20.5,4.3-31.1,3c-5.5-0.7-11.1,0.1-16.6,0.8c-10.8,1.3-15.4-1.5-21-10.8c-5.3-8.8-12.1-16.4-21.1-22
				c-3.5-2.2-7.1-4.2-10.7-6.3c-2.5,1.2-5,1.9-7.7,2.2c2.6-0.3,5.2-1,7.7-2.2c-4.6-4.1-7.2-9.3-7.9-15.3c-0.6-4.8-1.2-9.7-1.8-14.5
				c0.2-9.9-2-20,2.3-29.6c0.2-0.4,0.4-0.7,0.6-1.1c0.2-0.4,0.4-0.9,0.7-1.3c0.3-0.4,0.6-0.8,0.9-1.3c0.3-0.2,0.5-0.5,0.4-0.9
				c3.7-4,8.1-6.7,13.3-8.6c11-4,20.7-10.4,29.4-18c5-4.4,8.5-3.3,12.7,0.3c7.7,6.6,14.5,14,20.5,22.2c5.5,7.5,13.6,11.9,20.4,17.9
				c0-1.5,0.3-2.6,1-3.3c-0.7,0.7-1,1.8-1,3.3c7.4,8.6,14.3,17.5,20.8,26.8c6.9,12.7,12.4,25.7,9,40.7
				C-1857.2,1355-1864.8,1360-1874.8,1362.6z M-1809.3,1351c-7.5-2.8-14.8-6.2-22.2-9.3c0,0.4-0.1,0.8-0.2,1.2
				c0.1-0.4,0.2-0.7,0.2-1.2c-3.5-4.8-4.2-10.5-5.1-16.1c-1.4-8.6-2.5-17.4-8.2-24.6c-3.1-7.3-0.9-13.6,4.2-19
				c2.6-2.8,5.6-5.3,8.5-7.9c11.4-6,21.4-1.3,31.5,3.8l0,0c11.9,10.5,25.5,18.3,39.5,25.6c4.5,2.4,8.5,5.7,12.7,8.6
				c1.4,2,2.9,4,4.1,6.1c5.3,9.3,4.2,16.4-3.5,23.9c-1.2,1.1-2.4,2.2-3.6,3.4h0C-1769.8,1358.6-1789.3,1358.3-1809.3,1351z"/>
			<path class="st31" d="M-1936.9,1251.8c-3.9-1.1-6.1,2.1-7.5,5.1c-2.5,5.1-7.1,7.2-11.7,9.5c-3.5,1.8-7.1,3.3-10.3,5.5
				c-6.6,4.6-8.7,15.3-4.6,21.6c3.8,5.8,11.3,6.8,19.3,2.1c12.7-7.5,18.3-19,18.2-33.5c0-0.8,0-1.6,0-2.5
				C-1933.7,1256.6-1933.3,1252.9-1936.9,1251.8z"/>
			<path class="st31" d="M-1938.4,1303.9c0.2-1.5,0.8-4.1-1.7-3.2c-5.4,2-10.5,4.7-14.4,9.2c-1.2,1.4-0.8,2.8,0.3,3.9
				c4.5,4.3,7.9,9.1,8.6,15.7c0.3,2.5,3.2,3.8,5.9,3c2.5-0.7,2.2-2.8,1.6-4.5C-1941.1,1319.9-1939.6,1311.9-1938.4,1303.9z"/>
			<path class="st31" d="M-1913.5,1339.7c-2.7,0-5.9-0.3-6.1,3.5c-0.2,4-0.9,8.8,4.1,10.6c3.6,1.3,7.6,1.5,11.9,2.2
				c2.6-0.5,7,0.6,6.3-4.6C-1897.8,1347.5-1909.2,1339.7-1913.5,1339.7z"/>
			<path class="st31" d="M-1867.8,1338.1c-3,0.8-6,1.8-9.1,1.4c-5.1-0.7-7.4,1.5-7.2,6c-1,3.8,1,5.5,3.3,3.8
				c4.6-3.3,9.4-5.5,14.8-6.8c1.3-0.3,2.7-1.6,1.9-3.3C-1864.8,1337.6-1866.3,1337.7-1867.8,1338.1z"/>
			<path class="st31" d="M-1923.7,1313.7c-3.8-0.1-4.9,4-5.1,7.4c-0.3,4.3,3.1,5.9,6.4,6c3.7,0.1,2.4-3.5,3-5.7
				C-1920.2,1318.4-1919.3,1313.7-1923.7,1313.7z"/>
			<path class="st31" d="M-1804.7,1313.1c0.3-2.7-2.1-3.9-4.2-4.7c-7-2.6-11.8-7.2-14.1-14.4c-0.4-1.1-1.2-2.2-2-3.1
				c-2-2.5-4.4-2.9-7.1-1.2c-2.4,1.6-4.4,3.7-2.9,6.6c2.3,4.4,1.9,9.2,2.6,13.9c1.1,7.8,3.1,9.5,10.8,9.5c4.2-0.1,8.2-0.8,12.1-2.3
				C-1807.4,1316.6-1805,1315.6-1804.7,1313.1z"/>
			<path class="st31" d="M-1798.1,1330.7c-2.7-1.6-5.4-3.1-8.6-1.2c-3.1,1.9-4,5-4.1,8.4c-0.1,4.2,2.2,6.6,6.2,7.1
				c5.3,0.6,10.6,1.3,15.7,2.9c1.4,0.4,3,0.8,4-0.5c1.2-1.5,0.3-3.1-0.4-4.6C-1788.3,1337.5-1793,1333.8-1798.1,1330.7z"/>
			<path class="st31" d="M-1762.6,1331.1c-4.4,5.1-10.5,4.9-16.4,5.8c-1.4,0.2-2.8,0.9-3.1,2.6c-0.3,1.9,0.7,3.3,2.3,4
				c2,0.9,4.2,1.4,6,2c6-1.2,11.4-2.6,14.4-8.1c1.1-2,0.7-4-0.6-5.8C-1760.5,1330.7-1761.9,1330.3-1762.6,1331.1z"/>
			<path class="st31" d="M-1795.2,1308.9c0.9-0.2,2-0.2,2.8-0.7c0.7-0.4,0.5-1.6-0.2-2.1c-4.6-3.4-8.9-7.2-14.1-9.7
				c-0.6-0.3-1.7-0.1-2.3,0.3c-0.8,0.6-0.3,1.5,0.2,2.1C-1805.3,1303.6-1801.4,1307.7-1795.2,1308.9z"/>
			<path class="st31" d="M-2199.8,1332.9c-1.8-3.5-5.7-4.7-9.5-1.4c-3.6,3.2-4,6.8-0.8,10.2c6.8,7.4,15.2,11.9,25.3,12.4
				c3.9,0.2,7.6-0.8,11.8-4.8C-2186.3,1349.4-2194.5,1343.6-2199.8,1332.9z"/>
			<path class="st31" d="M-2158.7,1324c1.5-4.3-2.3-6.6-4.8-9.1c-1.8-1.8-4.2-3-6.6-3.1c-3.5-0.2-9.1,0.3-8.7,3.6
				c0.6,5.1,4.2,9.8,6.8,14.5c0.3,0.6,1.9,0.5,2.7,0.7C-2164.8,1329.7-2160.4,1328.6-2158.7,1324z"/>
			<path class="st31" d="M-2157.4,1351.6c-3.5,0.3-7.6,0.9-8.5,4.7c-0.6,2.5,3,1.8,5.1,2.7c2.8-1,6.8-0.6,7.5-4.7
				C-2152.9,1352.3-2155.4,1351.5-2157.4,1351.6z"/>
			<path class="st31" d="M-2032.8,1219.3c-0.9,5.1-2.9,9.9-4.9,14.6c-2.5,5.8-0.9,8.4,5.5,9.1c14.3,1.7,21.7-5,21.8-19.6
				c0.1-5.8-0.8-11.5-3.2-16.9c-3.6-7.9-9.5-12.9-18.4-13.6c-2.4-0.2-5.2-0.2-6.6,2.4c-1.4,2.7,0.1,4.7,1.8,6.6
				C-2032.1,1207-2031.6,1212.9-2032.8,1219.3z"/>
			<path class="st31" d="M-2121.5,1273.1c4.4,2.2,9.7,4.4,13.8,0.2c4.2-4.1,0.5-8.5-1.7-12.3c-2.3-4-1.8-6.7,2.1-9.3
				c4.5-3,8.3-6.7,11.5-11.1c1.1-1.5,2.3-3.1,1.1-5.1c-1-1.7-2.8-1.5-4.4-1.4c-7.1,0.2-13.9,1.6-20.4,4.3c-7.4,3.2-11.2,8.8-11,19.9
				C-2130.3,1262.8-2128.8,1269.6-2121.5,1273.1z"/>
			<path class="st31" d="M-2070.7,1239.3c2.1-5.7,7-8.2,11-12c3.4-3.2,2.6-8.1-0.9-9.2c-6.9-2.2-16.5,5.2-16.2,14.1
				c0.2,1,0.5,3.8,1.5,6.2C-2074.5,1240.7-2071.6,1241.8-2070.7,1239.3z"/>
			<path class="st31" d="M-2083.7,1290.2c3.7,2.4,7.7,2.9,11.6,0.7c2-1.1,3.5-3.4,1.5-5c-4.7-3.7-8.5-9.1-13.9-8.8
				c-3.6-0.2-5.8-0.1-5.6,2.4C-2089.7,1284-2087.5,1287.7-2083.7,1290.2z"/>
			<path class="st31" d="M-2080.1,1264.1c3.8,0.2,10.3-4.3,10.4-7.4c0.1-3-2.5-2.7-4.2-3.2c-5-0.2-10.4,2.8-10.6,5.9
				C-2084.6,1262.4-2083.1,1263.9-2080.1,1264.1z"/>
			<path class="st31" d="M-1895.9,1212.1c4.7,0.8,8.9,1.8,12.7,5.4c2.5,2.4,6.7,2.3,9.5-0.7c2-2.1,0.6-4.4-1.1-6
				c-4.8-4.5-9.6-8.9-14.7-13c-3-2.4-6.6-4.1-10.6-4.5c-1.7-0.1-3.3,0-4.1,1.9C-1906,1199.2-1900.3,1211.4-1895.9,1212.1z"/>
			<path class="st31" d="M-1859.5,1239.3c4.1-0.2,6.1-2.8,6.6-6.1c0.2-4.9-6.4-10.8-11.4-10.9c-2.6-0.1-3.7,1.4-3.8,3.8
				C-1868.5,1231.8-1863.7,1239.5-1859.5,1239.3z"/>
		</g>
	</g>
</g>
<g>
	<g>
		<g>
			<path class="st3" d="M87.6,858.7c9.7,3,17.2,7.5,22.5,15.1c17.3,24.9,1.8,59.2-28.7,63.3c-4.2,0.6-8.4,0.8-12.7,0.8
				c-15.6,0-31.2-0.1-46.8,0c-2.4,0-3.2-0.5-3.2-3.1c0.1-45.6,0.1-91.3,0-136.9c0-2.3,0.7-3,3-2.9c15.5,0.1,30.9,0,46.4,0.1
				c5.4,0,10.6,1.1,15.7,3c25.6,9.4,26.2,40.4,14.3,52.9C95.4,854,92.1,856.4,87.6,858.7z M32.5,895.7c0,9,0,17.9,0,26.9
				c0,1.9,0.3,3,2.6,3c13.3-0.2,26.7,0.2,40-0.4c10.7-0.5,19.9-4.7,24.9-15.1C110,889,96.8,866.8,73.5,866
				c-12.7-0.4-25.4-0.1-38.1-0.3c-2.3,0-2.9,0.8-2.9,3C32.5,877.7,32.5,886.7,32.5,895.7z M32.5,830.9c0,6.9,0,13.7,0,20.6
				c0,1.5,0,2.7,2.1,2.6c12.6-0.3,25.2,0.8,37.8-0.5c12.6-1.4,19.1-9.2,19.4-21.9c0.2-12.9-6.1-21.2-18.5-23.2
				c-12.9-2.1-25.9-0.6-38.8-0.9c-2.2-0.1-1.9,1.5-1.9,2.9C32.5,817.1,32.5,824,32.5,830.9z"/>
			<g>
				<g>
					<path class="st3" d="M900.6,939.5c-41.6,0-73.5-31.8-73.4-73.1c0.1-41.1,32-72.9,73.3-72.9c41.8-0.1,73.3,31.7,73.3,74
						C973.7,908,941.7,939.5,900.6,939.5z M841.9,866.1c0,2.2-0.1,4.5,0,6.7c0.1,1.9,0.4,3.7,0.8,5.6c4.5,22.1,16.6,38.2,38.3,45.3
						c22,7.1,42.6,3.7,59.9-12.4c15.6-14.6,20.2-33.2,17.9-54c-3-27.1-25-48.8-52-51.1C870.2,803.1,841.7,829.3,841.9,866.1z"/>
				</g>
			</g>
			<g>
				<g>
					<path class="st3" d="M272,937.9c-4.9,0-9.5-0.1-14.1,0.1c-2.1,0.1-2.8-1.3-3.8-2.5c-8.1-10.4-16.3-20.8-24.3-31.4
						c-1.5-1.9-2.9-2.5-5.3-2.3c-7.6,0.8-15.2,0.6-22.8,0.5c-2.5,0-3.2,0.7-3.2,3.2c0.1,9.7,0,19.5,0.1,29.2c0,2.6-0.6,3.6-3.3,3.3
						c-3.3-0.4-7.6,1.4-9.7-0.7c-2.1-2.1-0.6-6.4-0.6-9.7c0-42.8,0-85.6-0.1-128.4c0-3.2,0.6-4.3,4.1-4.2
						c14.1,0.6,28.2-1.2,42.2,1.4c20.2,3.7,35.4,14.2,41.2,34.5c5.9,20.5,3.4,39.9-12.1,56c-4.5,4.6-9.9,8-15.9,10.3
						c-2.3,0.9-2.1,1.6-0.8,3.3c8.9,11.2,17.7,22.6,26.5,33.9C270.8,935.3,271.9,936.1,272,937.9z M198.6,848.8
						c0,12.7,0.1,25.4,0,38.2c0,2.4,0.5,3.3,3.1,3.2c6.1-0.2,12.2,0,18.3-0.2c5-0.2,9.9-1,14.7-2.5c16.5-5.3,24.5-17.2,25.8-34
						c1.6-21.3-6.7-39.9-31.6-44.8c-8.9-1.8-17.9-1-26.9-1.3c-3-0.1-3.4,1.1-3.4,3.7C198.7,823.6,198.6,836.2,198.6,848.8z"/>
				</g>
			</g>
			<g>
				<g>
					<path class="st3" d="M658.2,937.9c5-12.1,9.7-23.6,14.4-35.1c14.7-35.7,29.4-71.5,44.1-107.2c0.4-0.9,0.7-1.9,1.1-2.8
						c0.7-1.3,1.4-1.2,2.1,0.1c0.4,0.8,0.7,1.6,1,2.4c19.2,46.5,38.4,93.1,57.6,139.6c0.3,0.8,0.6,1.6,1.1,3c-4.5,0-8.7,0-12.8,0
						c-1.9,0-2-1.7-2.5-2.8c-2.6-6.4-5.2-12.7-7.6-19.1c-0.8-2-1.8-2.8-4-2.8c-22.6,0.1-45.2,0.1-67.7,0c-2.3,0-3.3,0.8-4.1,2.8
						c-2.5,6.5-5.3,12.9-7.8,19.4c-0.7,1.9-1.7,2.7-3.8,2.6C665.9,937.8,662.4,937.9,658.2,937.9z M719.2,822.7
						c-0.6,0.9-0.9,1.1-1,1.4c-10,24.7-20,49.4-30.1,74c-1,2.5,0.1,2.7,2.1,2.7c18.9,0,37.9-0.1,56.8,0c3.1,0,3.2-0.9,2.2-3.5
						c-4.6-11.2-9-22.4-13.5-33.6C730.3,850.3,724.9,836.8,719.2,822.7z"/>
				</g>
			</g>
			<g>
				<g>
					<path class="st3" d="M332.4,937.9c2-4.8,3.7-9.1,5.5-13.5c17.7-43.1,35.4-86.2,53.2-129.3c0.5-1.1,0.4-3.2,2.1-3.1
						c1.3,0.1,1.4,1.9,1.8,3c19.2,46.5,38.4,93.1,57.7,139.6c1,2.5,1.2,3.6-2,3.3c-3.6-0.4-7.8,1.3-10.6-0.6
						c-2.7-1.8-2.9-6.1-4.3-9.3c-1.7-4-3.3-8.1-4.8-12.2c-0.7-1.9-1.6-2.7-3.7-2.7c-22.7,0.1-45.4,0.1-68.1,0c-2.3,0-3.2,1-4,2.9
						c-2.4,6.2-5.1,12.2-7.4,18.4c-1,2.9-2.5,3.8-5.5,3.6C339.2,937.7,336.1,937.9,332.4,937.9z M393.3,822.5
						c-0.5,0.8-0.7,1.1-0.8,1.4c-10,24.6-19.9,49.2-30,73.7c-1.3,3.1-0.1,3.2,2.5,3.2c18.7-0.1,37.4-0.1,56.1,0
						c3.3,0,3.4-0.9,2.3-3.6c-7.4-18.2-14.7-36.5-22-54.8C398.7,835.9,396.1,829.4,393.3,822.5z"/>
				</g>
			</g>
			<g>
				<path class="st3" d="M557.5,939.5c-20.6-0.1-36.9-8.1-48-25.9c-1.4-2.2-1.4-3.3,1.2-4.4c2.9-1.2,5.6-4,8.3-3.9
					c2.8,0.1,3.6,4.3,5.4,6.6c13,16.6,35,17.8,48.9,12.2c16.4-6.7,20-28.1,6.9-40.6c-5-4.8-11.2-7.9-17.3-10.9
					c-10.1-4.9-20.5-9.2-29.9-15.4c-17.2-11.3-19.1-29.1-13.7-42.9c4.3-11,12.9-17.2,24.2-19.7c15.2-3.3,35.3-0.6,47.4,17
					c1.6,2.4,1.5,3.5-1,4.8c-2.5,1.3-4.8,4.1-7.3,4.2c-2.4,0.1-3.4-3.8-5.3-5.7c-8.2-8.6-22.4-11.9-33.5-7.5
					c-7.5,2.9-12,8.4-13.2,16.3c-1.2,8,0.9,15.1,7.5,20.4c5.9,4.7,12.8,7.6,19.6,10.9c9.8,4.7,19.7,9,28.5,15.6
					c13.6,10.2,17.8,24,14.7,40.1c-3,15.7-14,23.7-28.8,27.4C567.3,939.1,562.4,939.6,557.5,939.5z"/>
			</g>
			<g>
				<path class="st3" d="M728.7,778.5c-3.8,0.2-6.8-1.6-9.7-3.6c-1.9-1.4-3.7-2.9-5.8-4.1c-3.1-1.8-5.6-1.2-7.6,1.8
					c-1.4,2.1-2.7,4.2-5.4,4.8c-1.3,0.3-2.5,0.3-2.7-1.5c-0.6-5.2,4.8-13.2,9.9-14.5c3.8-1,7.4-0.3,10.7,1.8c2.4,1.5,4.6,3.4,7,4.9
					c3.7,2.5,5.6,2.1,8-1.6c1.8-2.7,3.6-5.4,7.1-6.2c1.3-0.3,2.4-0.4,2.1,1.4c-0.9,4.8-1.9,9.5-5.3,13.3
					C734.6,777.6,731.9,778.7,728.7,778.5z"/>
			</g>
		</g>
	</g>
	<g>
		<g>
			<g>
				<path class="st3" d="M496.3,964.8c-157.8,0-315.5,0-473.3,0c-1.5,0-3.8,1.1-4.3-0.9c-0.6-2.6-0.5-5.4,0-8.1
					c0.1-0.7,1-0.6,1.6-0.6c1,0,2,0,3,0c315.3,0,630.5,0,945.8,0.1c1.6,0,4.1-1.2,4.6,0.9c0.6,2.6,0.1,5.4,0,8.2
					c0,0.7-1,0.6-1.6,0.6c-1.1,0-2.2,0-3.4,0C811.3,964.8,653.8,964.8,496.3,964.8z"/>
			</g>
			<g>
				<g>
					<path class="st3" d="M804.2,1023.9c-12.7,0-22.3-9.7-22.2-22.3c0.1-12.4,9.7-21.9,22.3-21.8c12.5,0,22.2,9.6,22.2,21.9
						C826.5,1014.3,816.9,1023.9,804.2,1023.9z M804.4,1017.6c8.6-0.1,15-6.9,14.9-15.9c-0.1-9-6.5-15.7-15.1-15.8
						c-8.7,0-15.2,7-15,16.1C789.4,1011.2,795.7,1017.7,804.4,1017.6z"/>
				</g>
			</g>
			<path class="st3" d="M42.3,999.4c6.4,3.7,8.5,8.1,7.2,14.2c-1.2,5.6-5.8,9.3-12.2,9.6c-5.3,0.2-10.7,0-16.1,0.1
				c-1.8,0-2.3-0.6-2.3-2.4c0.1-12.8,0.1-25.6,0-38.5c0-1.9,0.8-2.3,2.5-2.3c4.5,0.1,9-0.1,13.4,0.1c4.8,0.2,9.2,1.6,11.1,6.7
				C47.8,991.7,46.8,996,42.3,999.4z M25.7,1010c0,7.4,0,7.4,7.4,7.4c1.2,0,2.5,0.1,3.7-0.1c3.7-0.5,5.8-2.8,6-6.5
				c0.3-5.4-2.5-7.9-8.7-8C25.7,1002.7,25.7,1002.7,25.7,1010z M31.1,997.1c1,0,2,0,3,0c3.9-0.2,5.7-1.8,5.8-5.3
				c0.1-3.6-1.9-5.3-5.2-5.5c-2.4-0.2-4.9-0.7-7.1,0c-4.2,1.2-1.2,5-1.9,7.5c-0.4,1.3-0.8,3.5,2,3.3c0.2,0,0.5,0,0.7,0
				C29.4,997.1,30.2,997.1,31.1,997.1z"/>
			<g>
				<path class="st3" d="M728.1,1001.7c0-6.2,0.2-12.5-0.1-18.7c-0.1-3,1.5-2.8,3.5-2.8c1.9,0,3.7-0.4,3.6,2.7
					c-0.2,6.1,0.1,12.2-0.1,18.3c-0.1,2.4,0.8,2.9,2.9,2.9c4.9-0.1,9.7-0.1,14.6,0c2.4,0.1,3-0.8,2.9-3c-0.1-6,0.1-12-0.1-17.9
					c-0.1-3.2,1.7-2.9,3.8-2.9c2.2-0.1,3.4,0.2,3.3,3c-0.2,12.5-0.2,24.9,0,37.4c0,3-1.5,2.8-3.5,2.8c-1.9,0-3.8,0.4-3.6-2.6
					c0.2-2.6,0-5.2,0.1-7.8c0.1-2-0.7-2.6-2.6-2.6c-5,0.1-10,0.1-15,0c-2,0-3,0.6-2.8,2.8c0.1,2.6-0.1,5.2,0.1,7.8
					c0.2,3.2-2,2.4-3.7,2.5c-1.8,0.1-3.4,0.2-3.3-2.5C728.2,1014.4,728.1,1008,728.1,1001.7z"/>
			</g>
			<g>
				<path class="st3" d="M378.2,979.2c9.6,10,18.4,19.2,27.9,29.1c0-8.8,0.1-16.6,0-24.4c0-2.5,0.2-3.8,3.3-3.8
					c3.1,0,3.3,1.3,3.3,3.8c-0.1,13.2,0,26.4,0,40.8c-9.5-10-18.4-19.2-28-29.2c0,8.8-0.2,16.5,0.1,24.2c0.1,3.4-1.1,4-4.1,3.7
					c-1.6-0.1-2.5-0.4-2.5-2.3C378.3,1007.5,378.2,993.9,378.2,979.2z"/>
			</g>
			<path class="st3" d="M98.2,1022.8c-5.9,1.8-9.5-0.2-11.9-5.2c-1.6-3.3-4-5.5-8.2-4.8c-1.8,0.3-2.4,0.8-2.3,2.5
				c0.1,1.2,0,2.5,0,3.7c0,4.4-0.1,4.4-4.7,4.2c-1.6-0.1-2.2-0.5-2.2-2.2c0-13,0-25.9,0-38.9c0-1.7,0.9-2.1,2.3-2
				c4.5,0.1,9-0.2,13.4,0.5c6.8,1,11.6,5.3,13.1,11.6c1.7,7.1-0.4,13.8-6,17.6c-1.8,1.3-1.6,1.9-0.5,3.4
				C93.7,1016.3,95.9,1019.5,98.2,1022.8z M75.9,996.6c0,1.5,0,3,0,4.5c0.1,7-1.5,6.6,6.6,5.9c3.7-0.3,6.8-1.9,8-5.6
				c1.4-4.1,1.3-8.1-1.6-11.6c-2.1-2.6-9.6-4.7-12.1-3c-2.4,1.7-0.6,4.8-1,7.2C75.7,994.8,75.9,995.7,75.9,996.6z"/>
			<g>
				<path class="st3" d="M684.5,1000.1c4.1-5.2,8.1-10.3,12.2-15.5c3.9-5.1,3.9-5.1,11.1-4c-4.4,5.5-8.5,10.9-12.8,16.1
					c-1.7,2-1.8,3.5-0.1,5.7c5.1,6.6,9.9,13.3,15,20.1c-6,1.7-7.6,1.2-10.9-3.3c-3-4.1-6.1-8.2-9.1-12.4c-1.2-1.7-1.8-1.5-3.3-0.1
					c-3.8,3.5-3,8-2.8,12.2c0.2,3.4-0.7,4.6-4.3,4.3c-2.3-0.2-2.9-0.9-2.9-3.1c0.1-12.4,0.1-24.7,0-37.1c0-3,1.4-3.1,3.6-3.1
					c2.4,0,3.7,0.4,3.5,3.2c-0.2,5.5-0.1,10.9-0.1,16.4C683.9,999.9,684.2,1000,684.5,1000.1z"/>
			</g>
			<g>
				<path class="st3" d="M878.6,996.2c0,4.9,0.3,9.8-0.1,14.6c-0.7,7.9-6.6,12.9-15.1,13.2c-9.5,0.3-16.1-4-17.1-12.1
					c-1.3-9.9-0.4-19.9-0.4-29.9c0-3.2,2.9-1.3,4.4-1.7c2-0.5,2.5,0.6,2.5,2.5c-0.1,7,0,14,0,21c0,1.2,0,2.5,0,3.7
					c0.2,7,3.2,10.2,9.7,10.1c6.3-0.1,9.3-3.2,9.4-10c0.1-7.9,0.1-15.7,0-23.6c-0.1-2.7,0.4-3.9,3.6-3.9c3.5-0.1,3.5,1.6,3.4,4.1
					c-0.1,4,0,8,0,12C878.8,996.2,878.7,996.2,878.6,996.2z"/>
			</g>
			<g>
				<path class="st3" d="M946.4,1001.7c0-6.2,0.1-12.5,0-18.7c0-2.1,0.6-2.8,2.8-2.8c7.5,0.1,15,0.1,22.4,0c2.5,0,2.5,1.3,2.5,3
					c0,1.8,0.3,3.5-2.5,3.4c-5.1-0.2-10.2,0-15.3-0.1c-2.1-0.1-2.9,0.6-2.8,2.7c0.1,4.1,0.1,8.2,0,12.3c-0.1,2,0.7,2.6,2.6,2.5
					c4.4-0.1,8.7,0.1,13.1-0.1c2.5-0.1,2.4,1.3,2.5,3.1c0,1.8,0,3.2-2.5,3.1c-4.4-0.2-8.7,0-13.1-0.2c-2.8-0.1-2.7,1.5-2.6,3.3
					c0.2,1.7-1,4.2,2.5,4c5.4-0.2,10.7,0.1,16.1-0.1c2.4-0.1,2.9,0.9,2.9,3c0,2.1-0.4,3.1-2.9,3.1c-7.7-0.2-15.5-0.1-23.2,0
					c-2,0-2.6-0.7-2.5-2.6C946.5,1014.4,946.4,1008,946.4,1001.7z"/>
			</g>
			<g>
				<path class="st3" d="M574.6,1001.8c0-6.2,0.1-12.5-0.1-18.7c-0.1-2.4,0.8-3,3-2.9c7.2,0.1,14.5,0.2,21.7,0
					c2.8-0.1,2.9,1.3,2.9,3.4c0.1,2.2-0.5,3.1-2.9,3c-5-0.2-10,0-15-0.1c-2.1,0-2.9,0.7-2.8,2.8c0.1,4,0.1,8,0,12
					c-0.1,2.1,0.6,2.9,2.8,2.8c4.2-0.1,8.5,0.1,12.7-0.1c2.4-0.1,2.9,0.9,2.9,3.1c0,2.2-0.5,3.2-2.9,3.1c-4.2-0.2-8.5,0.1-12.7-0.1
					c-3.3-0.1-2.6,2.1-2.7,4c-0.1,1.9,0,3.3,2.7,3.2c5.4-0.2,10.7,0,16.1-0.1c2.2-0.1,2.9,0.7,2.7,2.8c-0.1,1.8,0.2,3.4-2.6,3.3
					c-7.7-0.2-15.5-0.1-23.2,0c-2.2,0-2.7-0.7-2.7-2.8C574.7,1014.3,574.6,1008.1,574.6,1001.8z"/>
			</g>
			<g>
				<path class="st3" d="M190.9,986.5c-6,0-11.1-0.2-16.2,0.1c-2.7,0.1-3-1.1-3-3.3c0-2.1,0.3-3.1,2.8-3.1c9,0.1,18.1,0.1,27.9,0.1
					c-7.7,12.5-15.1,24.4-22.6,36.6c3.1,0.9,6.1,0.4,8.9,0.4c3.1,0.1,6.2,0.2,9.3,0c2.5-0.1,3.5,0.4,3.5,3.2c0,2.8-1.3,2.9-3.4,2.9
					c-9.7-0.1-19.4,0-30,0C175.8,1010.9,183.1,999,190.9,986.5z"/>
			</g>
			<g>
				<g>
					<path class="st3" d="M359.6,1023c-4.3,0.6-8,1.1-9.1-4.1c-0.3-1.3-1.3-1.6-2.6-1.6c-5,0-10,0.1-15,0c-1.4,0-2.5,0.3-2.8,1.8
						c-0.9,5.2-4.7,4.3-8.7,4c6.3-14.6,12.4-29,19-44.3C347.1,994,353.3,1008.4,359.6,1023z M340.5,994.6c-2.2,5.3-4.1,9.8-6,14.2
						c-0.7,1.6-0.7,2.6,1.5,2.5c3-0.1,6-0.1,9,0c1.7,0,2.3-0.4,1.6-2.1C344.6,1004.6,342.7,999.9,340.5,994.6z"/>
				</g>
			</g>
			<g>
				<g>
					<path class="st3" d="M619.9,1023.3c6.4-14.8,12.5-29.1,19.1-44.4c1.8,4.2,3.2,7.5,4.6,10.7c4.3,10,8.7,19.9,12.8,29.9
						c0.4,1.1,2.5,3,0.4,3.6c-1.9,0.5-5.6,1.6-6.3-1c-1.4-5.4-5.1-4.8-8.9-4.7c-2.1,0.1-4.2,0.1-6.4,0c-3.7-0.2-6.5-0.1-7.9,4.5
						C626.4,1024.9,622.9,1022.8,619.9,1023.3z M645.8,1011.1c-2.2-5.4-4.3-10.5-6.8-16.5c-2.5,6-4.7,11.1-6.9,16.5
						C636.8,1011.1,641.1,1011.1,645.8,1011.1z"/>
				</g>
			</g>
			<path class="st3" d="M114.3,1024c6.6-15.4,12.8-29.8,19-44.2c1.7,0.8,1.7,2.2,2.2,3.2c5.3,12.1,10.5,24.2,15.6,36.4
				c0.5,1.1,2.3,3.1,0.5,3.6c-2,0.5-5.6,1.8-6.5-1.3c-1.3-4.3-3.9-4.8-7.6-4.4c-2.5,0.2-5,0.2-7.5,0c-3.7-0.3-6.5-0.1-7.9,4.4
				C121,1025.1,118.3,1023.5,114.3,1024z M140.5,1011.3c-2.3-5.5-4.4-10.6-6.6-15.9c-1.1,1.6-6.4,13.2-6.7,14.4
				c-0.4,1.3,0.2,1.5,1.2,1.5C132.2,1011.2,136.1,1011.3,140.5,1011.3z"/>
			<g>
				<path class="st3" d="M912.9,1023.9c-5.7,0-10.5-1.9-14-6.5c-0.7-0.9-2.7-2.2-0.5-3.2c1.7-0.8,3.4-3.8,5.7-0.7
					c2.7,3.6,6.4,4.5,10.6,3.9c2.5-0.4,4.6-1.5,5.2-4.1c0.7-2.8-0.5-5-2.9-6.3c-3-1.6-6.1-2.9-9.1-4.4c-3.3-1.7-6.2-3.8-7.5-7.5
					c-2.1-5.7,0.3-11.8,5.6-14.3c5.9-2.7,14.3-0.6,17.2,4.2c0.7,1.2,0.6,2-0.6,2.4c-1.5,0.5-2.5,3.5-4.6,1.2c-1.1-1.2-2.4-2.3-4-2.6
					c-2.9-0.6-5.6-0.4-7,2.7c-1.4,3.1,0,5.4,2.7,6.9c3.5,1.9,7.2,3.4,10.7,5.3c5.8,3.2,8,9,6.1,15
					C924.7,1020.9,919.8,1023.9,912.9,1023.9z"/>
			</g>
			<g>
				<path class="st3" d="M494.7,1023.9c-5.4,0-10.1-1.8-13.5-6.1c-0.7-0.9-3.1-2.2-0.9-3.5c1.6-0.9,3.5-4,5.9-0.7
					c2.6,3.7,6.5,4.4,10.7,3.7c2.5-0.4,4.5-1.6,5.1-4.3c0.5-2.6-0.5-4.8-2.8-6c-3.6-2-7.5-3.5-11-5.6c-5.3-3-7.4-8-6.1-13.2
					c1.2-4.7,4.3-7.6,9.1-8.3c5.5-0.9,10.4,0.4,14,5.1c0.8,1,0.9,1.9-0.3,2.4c-1.5,0.5-2.5,3.5-4.7,1.4c-1.6-1.6-3.2-2.8-5.4-2.9
					c-2.6-0.2-4.8,0.5-5.8,3.1c-1,2.7-0.1,5,2.4,6.4c3.6,2,7.4,3.5,11,5.5c5.5,3.1,7.6,7.7,6.5,13.4
					C507.6,1020.6,502.6,1023.9,494.7,1023.9z"/>
			</g>
			<g>
				<path class="st3" d="M543.1,1005.3c0,5-0.1,10,0.1,14.9c0.1,2.6-0.9,3.2-3.2,3.1c-2.1-0.1-3.8,0.3-3.7-2.9
					c0.2-10.1,0-20.2,0.1-30.3c0.1-3-0.9-4-3.8-3.7c-1.7,0.2-3.5-0.2-5.2,0.1c-3.2,0.4-4.1-0.9-3.8-3.9c0.2-1.7,0.6-2.4,2.4-2.4
					c9.2,0.1,18.4,0.1,27.7,0c2.6,0,2.4,1.5,2.3,3.2c0,1.6,0.4,3.4-2.3,3.2c-2.6-0.1-5.2,0.1-7.8-0.1c-2.2-0.1-2.8,0.7-2.7,2.8
					C543.2,994.6,543.1,1000,543.1,1005.3z"/>
			</g>
			<g>
				<path class="st3" d="M250.5,1001.6c0-6.2,0.1-12.5-0.1-18.7c-0.1-3,1.7-2.7,3.6-2.7c1.9,0,3.7-0.4,3.6,2.7
					c-0.2,10,0.2,19.9-0.2,29.9c-0.1,4,1.2,4.9,4.8,4.6c3.8-0.3,7.7,0.1,11.6-0.1c2.8-0.2,2.5,1.4,2.6,3.3c0.1,2-0.4,2.9-2.6,2.9
					c-6.8-0.1-13.7-0.2-20.6,0c-2.5,0.1-2.9-1-2.8-3.1C250.6,1014,250.5,1007.8,250.5,1001.6z"/>
			</g>
			<g>
				<path class="st3" d="M431.6,1016.6c2.2-5.9,7.4-9.2,11.6-13.4c2.5-2.5,2.3-3.9-0.2-6c-3.2-2.7-6.2-5.8-9.3-8.7
					c-1-0.9-1.8-1.9-0.5-3.1c1.3-1.3,2.2-0.4,3.1,0.5c3.2,3.3,6.5,6.6,9.5,10c1.6,1.8,2.7,2,4.4,0.1c3-3.4,6.1-6.5,9.2-9.8
					c0.9-0.9,1.8-2.3,3.4-0.8c1.5,1.4,0.3,2.5-0.7,3.4c-3.2,3.1-6.4,6.3-9.8,9.2c-1.9,1.6-1.8,2.6-0.1,4.4c4.1,4.3,9.2,7.7,12,13.2
					c0.2,0.4,0.4,0.8,0.9,1.7c-6.2-2.4-9.5-7.4-13.6-11.3c-4.2-4-2.8-4-7-0.1c-3.7,3.3-6.3,7.7-10.9,10.1
					C433.1,1016.3,432.5,1017.2,431.6,1016.6L431.6,1016.6z"/>
			</g>
			<g>
				<path class="st3" d="M228.6,1001.7c0,6.2-0.2,12.5,0.1,18.7c0.1,3.2-1.6,2.9-3.7,3c-2.3,0.1-3.3-0.4-3.3-3
					c0.1-12.4,0.2-24.9,0-37.3c0-3,1.5-2.8,3.5-2.8c2,0,3.6-0.1,3.5,2.8C228.5,989.3,228.6,995.5,228.6,1001.7z"/>
			</g>
			<g>
				<path class="st3" d="M302.8,1001.8c0,6.2-0.2,12.4,0.1,18.7c0.1,2.9-1.4,2.9-3.4,2.8c-1.9,0-3.6,0.3-3.5-2.7
					c0.2-12.6,0.2-25.1,0-37.7c0-3.1,1.7-2.6,3.6-2.7c2.1-0.1,3.5,0.2,3.4,3C302.6,989.4,302.8,995.6,302.8,1001.8z"/>
			</g>
		</g>
	</g>
</g>
<rect x="-2132.6" y="-78.7" class="st31" width="204.7" height="204.7"/>
<linearGradient id="SVGID_25_" gradientUnits="userSpaceOnUse" x1="-2030.2382" y1="434.352" x2="-2030.2382" y2="229.648">
	<stop  offset="0" style="stop-color:#FFFFFF"/>
	<stop  offset="1" style="stop-color:#000000;stop-opacity:0.85"/>
</linearGradient>
<rect x="-2132.6" y="229.6" class="st32" width="204.7" height="204.7"/>
</svg>
