<?xml version="1.0" encoding="utf-8"?>
<!-- Generator: Adobe Illustrator 24.3.0, SVG Export Plug-In . SVG Version: 6.00 Build 0)  -->
<svg version="1.1" id="Layer_1" xmlns="http://www.w3.org/2000/svg" xmlns:xlink="http://www.w3.org/1999/xlink" x="0px" y="0px"
	 viewBox="0 0 1920 1080" style="enable-background:new 0 0 1920 1080;" xml:space="preserve">
<style type="text/css">
	.st0{fill:#F9C916;}
	.st1{fill:#F37E3E;}
	.st2{fill:#DF7246;}
	.st3{fill:#797065;}
	.st4{fill:url(#SVGID_1_);}
	.st5{fill:url(#SVGID_2_);}
	.st6{fill:url(#SVGID_3_);}
	.st7{fill:url(#SVGID_4_);}
	.st8{fill:#FBB23F;}
	.st9{fill:#F58C3E;}
	.st10{fill:#F8A040;}
	.st11{fill:#FEFEFE;}
	.st12{fill:url(#SVGID_5_);}
	.st13{fill:url(#SVGID_6_);}
	.st14{fill:url(#SVGID_7_);}
	.st15{fill:url(#SVGID_8_);}
	.st16{fill:url(#SVGID_9_);}
	.st17{fill:url(#SVGID_10_);}
	.st18{fill:url(#SVGID_11_);}
	.st19{fill:url(#SVGID_12_);}
	.st20{fill:url(#SVGID_13_);}
	.st21{fill:url(#SVGID_14_);}
	.st22{fill:url(#SVGID_15_);}
	.st23{fill:url(#SVGID_16_);}
	.st24{fill:url(#SVGID_17_);}
	.st25{fill:url(#SVGID_18_);}
	.st26{fill:url(#SVGID_19_);}
	.st27{fill:url(#SVGID_20_);}
	.st28{fill:url(#SVGID_21_);}
	.st29{fill:url(#SVGID_22_);}
	.st30{fill:url(#SVGID_23_);}
	.st31{fill:url(#SVGID_24_);}
	.st32{fill:#7A7166;}
</style>
<rect x="-84" y="54" class="st0" width="53" height="53"/>
<rect x="-84" y="126" class="st1" width="59" height="59"/>
<rect x="-84" y="204" class="st2" width="59" height="59"/>
<rect x="-83" y="277" class="st3" width="55" height="55"/>
<g>
	<g>
		<linearGradient id="SVGID_1_" gradientUnits="userSpaceOnUse" x1="802.0668" y1="353.6025" x2="802.0668" y2="616.5206">
			<stop  offset="0" style="stop-color:#F9C916"/>
			<stop  offset="1" style="stop-color:#F37E3E"/>
		</linearGradient>
		<path class="st4" d="M789.15,353.6c-4.91,7.67-7.85,14.84-10.76,21.99c-9.59,23.59-16.49,47.9-18.91,73.35l0,0
			c-2.5,23.07-2.49,46.04,2.91,68.77c2.29,16.91,8.27,32.68,15.63,47.88c9.05,18.67,19.87,36.22,34.79,50.92
			c-2.43-8.96-7.82-16.55-11.55-24.91c-10.27-22.97-18.06-46.73-23.9-71.17c-2.37-17.36-4.8-34.71-4.69-52.29
			c-0.12-0.31-0.28-0.62-0.33-0.94c-0.02-0.09,0.27-0.24,0.42-0.36c0.17-4.82,0.34-9.65,0.51-14.47c0.01-0.95,0.01-1.9,0.02-2.86
			c0.2-0.64,0.4-1.27,0.59-1.91h0c3.69-15.83,6.1-32.05,14.25-47.55c2.32,3.68,4.06,6.57,5.92,9.38
			c9.63,14.51,19.61,28.75,32.99,40.16c5.11,4.36,10.55,8.37,19.23,8.35C814.03,429.89,798.8,393.8,789.15,353.6z"/>
		<linearGradient id="SVGID_2_" gradientUnits="userSpaceOnUse" x1="812.903" y1="616.5206" x2="812.903" y2="616.7798">
			<stop  offset="0" style="stop-color:#F9C916"/>
			<stop  offset="1" style="stop-color:#F37E3E"/>
		</linearGradient>
		<path class="st5" d="M812.99,616.69c-0.06-0.06-0.11-0.11-0.17-0.17c0.02,0.09,0.06,0.17,0.08,0.26L812.99,616.69z"/>
	</g>
	<linearGradient id="SVGID_3_" gradientUnits="userSpaceOnUse" x1="973.8514" y1="196.9682" x2="973.8514" y2="601.1197">
		<stop  offset="0" style="stop-color:#F9C916"/>
		<stop  offset="1" style="stop-color:#F37E3E"/>
	</linearGradient>
	<path class="st6" d="M1076.24,473.3c-5.28,20.48-13.77,39.31-26.75,55.97c-13,16.69-28.71,30-49.57,40.1
		c9.41-17.27,18.2-32.49,24.56-48.91v0c6.66-13.62,10.98-28.07,14.88-42.65c5.46-17.04,8.09-34.64,9.42-52.39
		c1.9-25.37,0.92-50.61-5.14-75.47c-3.82-21.16-10.46-41.39-20.13-60.61c-4.26-12.77-12.21-23.64-18.76-35.15
		c-11.45-20.11-26.07-38.04-42.57-54.34c-1.18-1.16-1.98-3.14-4.29-2.85c1.23,6.51,2.6,12.96,3.66,19.47
		c4.35,26.65,3.01,53.24-1.06,79.78c1.75-0.38,3.5-0.74,5.25-0.99c-1.75,0.25-3.5,0.61-5.26,0.99
		c-5.18,26.31-14.15,51.32-26.08,75.3c-10.11,17.58-21.97,33.97-34.02,50.26c-5.28,7.14-9.89,14.74-13.52,22.89
		c-8.95,17.35-15.1,35.52-16.16,55.18c-3.82,21.2,0.98,41.36,7.77,61.15c5.05,14.72,12.43,28.27,22.87,40.11
		c-7.46-26.99-14.17-54-14.71-82.12c-0.1-0.29-0.23-0.58-0.27-0.88c-0.01-0.1,0.23-0.23,0.35-0.35c0-0.94,0-1.88,0.01-2.81
		c0.17-1.59,0.4-3.17,0.52-4.76c1.73-22.51,9.82-42.9,20.77-62.34c8.73-12.54,17.53-25.02,26.16-37.62
		c7.74-11.29,15.07-22.85,20.28-35.59c8.98-16.76,14.99-34.63,19.55-53c2.06-8.31,5.46-16.48,3.82-25.38
		c2.31-2.27,2.43-5.24,2.84-8.21c1.67-12.06,2.51-24.2,2.84-37.6c11.62,13.11,18.16,27.47,24.97,41.68c1.13-0.58,2.3-0.88,3.5-1.05
		c-1.2,0.17-2.38,0.47-3.5,1.05c7.43,19.16,12.29,39.04,16.77,59.04c3.13,27.89,6.64,55.74,3.87,83.94
		c-1.32,13.41-4.01,26.59-5.91,39.89c-4.65,16.17-9.27,32.35-15.05,48.16c-10.99,24.88-22.8,49.32-38.3,71.95
		c18.76-5.31,36.05-12.85,52.76-21.98c25.62-14.01,42.54-34.94,51.48-62.51C1078.03,498.46,1080.16,486.1,1076.24,473.3z
		 M970.26,294.89c0.72,0,1.45,0.02,2.17,0.09C971.71,294.91,970.99,294.88,970.26,294.89z"/>
	<linearGradient id="SVGID_4_" gradientUnits="userSpaceOnUse" x1="937.0107" y1="31" x2="937.0107" y2="651.5782">
		<stop  offset="0" style="stop-color:#F9C916"/>
		<stop  offset="1" style="stop-color:#F37E3E"/>
	</linearGradient>
	<path class="st7" d="M1188.76,503.95c0.06-32.48-7.43-63.07-22.43-93.07c-3.04,9.49-5.21,17.68-8.25,25.53
		c-6.96,17.98-15.29,35.22-29.95,48.5c-0.4,0.23-0.81,0.45-1.21,0.68c0.1-0.51,0.19-1.02,0.28-1.53c1.97-8.42,4.19-16.8,4.76-25.49
		c8.71-36.05,7.19-72.32,2.32-108.66c-0.78-5.64-1.33-11.33-2.37-16.92c-4.59-24.71-10.31-49.13-19.95-72.46h0
		c-4.64-11.84-9.06-23.78-14.01-35.49c-3.52-8.33-7.07-16.7-12.37-24.15c-19.03-36.23-45.47-66.25-77.49-91.38
		c-51.55-40.45-110.64-63.78-174.61-75.66c-6.68-1.24-13.46-1.91-20.19-2.85c2.04,2.79,4.34,4.23,6.61,5.74
		c27.67,18.4,48.15,42.61,59.88,73.95c5.33,14.25,7.66,29.14,9.95,44.06c2.06,37.39-4.04,73.6-15.4,109.12
		c-4.72,14.75-11.17,28.82-16.24,43.41c1.27-0.03,2.26-0.49,3.08-1.16c0.33-0.27,0.63-0.57,0.92-0.89
		c-0.28,0.32-0.59,0.62-0.92,0.89c-0.82,0.67-1.81,1.14-3.08,1.16c-5.59,9.26-8.97,19.76-15.67,29.21
		c-1.68-3.38-2.96-6.04-4.33-8.67c-4.13-7.92-5.36-17.01-10.05-24.7c0.2-0.4,0.65-0.86,0.57-1.19c-5.23-20.88-8.7-42.05-10.52-63.49
		c-0.84-9.86-1.59-19.73-2.51-31.27c-8.74,10.03-16.55,18.62-23.94,27.56c-16.12,19.51-32.96,38.47-46.39,60.07
		c0.54,0.05,1.08,0.08,1.62,0.1c-0.54-0.02-1.08-0.05-1.62-0.1c-13.89,18.83-26.23,38.59-35.69,60.05
		c-10.46,20.17-18.01,41.3-21.26,63.87c-4.83,23.88-4.15,47.7,0.92,71.46c1.99,16.68,6.61,32.73,12.52,48.36
		c11.82,31.25,28.8,59.12,54.56,81.03c1.84-0.13,2.89,0.69,3.03,2.57l0.05,0.03c14.83,13.56,31.92,23.18,51.02,29.39
		c-12.81-10.86-24.12-23.11-35.99-34.79c-0.82-1.08-1.59-2.21-2.48-3.24c-29.46-34.23-50.37-72.59-57.06-117.84
		c-0.31-2.1-1.18-3.89-2.5-5.5c0.04-1.39,0.07-2.78,0.11-4.17c-1.73-1.4-1.69-2.77,0.08-4.11c-0.54-17.78-0.34-35.55,1.47-53.26
		c0.12-0.51,0.24-1.02,0.36-1.52c0.2-1.44,0.39-2.88,0.59-4.32c-1.64,0-3.28-0.03-4.93-0.07c1.64,0.04,3.29,0.07,4.93,0.07
		c4.02-20.48,9.86-40.46,16.68-60.17c1.63-3.5,3.38-6.94,4.88-10.5c8.09-19.2,18.64-37.1,28.79-55.23c0,0.01,0.08-0.23,0.08-0.23
		c-0.82-1.98,0.03-2.92,1.97-3.19c11.53-16.74,23.73-32.95,38.75-49.7c-0.91,21.67,1.1,40.81,6.42,59.54
		c5.75,22.94,14.89,44.53,25.81,65.45c2.58,4.94,4.18,3.12,6.4-0.15c10.26-15.13,20.06-30.54,28.6-46.71
		c3.17-6.01,7.15-11.7,8.45-18.58c8.38-14.22,13.82-29.69,18.56-45.37c10.58-35,15.6-70.58,9.58-107.11
		c-3.9-31.25-15.22-59.62-34.07-86.09c9.66,0.81,17.97,3.17,26.09,5.94c45.46,15.52,83.24,42.66,116.15,77.15
		c17.96,18.82,32.72,40.01,46.42,62.01c0.01-0.34-0.04-0.71-0.05-1.06c0.01,0.35,0.06,0.72,0.05,1.06
		c8.79,16.44,16.02,33.61,23.6,50.62c5.16,16.52,10.95,32.86,14.49,49.84c2.65,12.7,4.98,25.46,7.46,38.19
		c3.96,36.17,5.02,72.37,1.29,108.63c-4.01,23.59-6.53,47.42-12.51,71.12c5.41-1.26,9.34-3.64,13.27-5.96
		c18.96-11.19,34.1-26.67,48.05-43.39c2.68-3.21,3.25-2.96,4.69,0.76c2.73,7.06,0.06,14.46,1.94,21.5
		c-0.71,46.19-14.02,88.96-36.39,130.94c2.13-1.62,2.86-2.08,3.48-2.67c23.74-22.67,41.31-49.06,49.44-81.26
		C1187.01,533.66,1189.81,519.06,1188.76,503.95z"/>
	<path class="st1" d="M712.5,486.04c-1.73-1.4-1.69-2.77,0.08-4.11C713.33,483.32,713.63,484.69,712.5,486.04z"/>
	<path class="st8" d="M765.42,296.7c-0.82-1.98,0.03-2.92,1.97-3.19C767.48,295.03,766.74,296.05,765.42,296.7z"/>
	<path class="st2" d="M756.32,619.59c1.84-0.13,2.89,0.69,3.03,2.57C758.34,621.3,757.33,620.44,756.32,619.59z"/>
	<path class="st9" d="M886.67,519c-0.1-0.29-0.23-0.58-0.27-0.88c-0.01-0.1,0.23-0.23,0.35-0.35
		C886.99,518.19,886.96,518.61,886.67,519z"/>
	<path class="st1" d="M812.9,616.78c1.11-0.24,1.25,0.54,1.39,1.32l0.09-0.09c-0.93,0.05-1.34-0.45-1.39-1.33
		C812.99,616.69,812.9,616.78,812.9,616.78z"/>
	<path class="st1" d="M814.29,618.1c0.17,0.11,0.35,0.23,0.52,0.34c-0.14-0.14-0.29-0.28-0.43-0.43
		C814.38,618.01,814.29,618.1,814.29,618.1z"/>
	<path class="st10" d="M772.68,468.15c-0.12-0.31-0.28-0.62-0.33-0.94c-0.02-0.09,0.27-0.24,0.42-0.36
		C772.95,467.29,772.92,467.73,772.68,468.15z"/>
	<path class="st10" d="M773.27,452.38c0.01-0.95,0.01-1.9,0.02-2.86C774.29,450.48,774.09,451.43,773.27,452.38z"/>
	<path class="st10" d="M714.05,428.67c0.12-0.51,0.24-1.02,0.36-1.52C714.29,427.65,714.17,428.16,714.05,428.67z"/>
	<path class="st11" d="M1128.12,484.9c-0.4,0.23-0.81,0.45-1.21,0.68c0.1-0.51,0.19-1.02,0.28-1.53
		C1127.53,484.31,1127.84,484.59,1128.12,484.9z"/>
	<g>
		<linearGradient id="SVGID_5_" gradientUnits="userSpaceOnUse" x1="959.9791" y1="619.7617" x2="959.9791" y2="866.1183">
			<stop  offset="0" style="stop-color:#DF7246"/>
			<stop  offset="0.9996" style="stop-color:#797065"/>
		</linearGradient>
		<path class="st12" d="M1243.89,820.04C1243.89,820.04,1243.89,820.04,1243.89,820.04
			C1243.89,820.03,1243.89,820.03,1243.89,820.04C1243.89,820.03,1243.89,820.03,1243.89,820.04c5.05-16.24,0.73-32.2-11.23-41.43
			c-13.61-12.02-29.82-20.07-45.12-29.5c-1.72-1.06-3.41-2.42-5.7-1.86c-0.24-1.68-1.16-2.69-2.88-2.92
			c-0.53-0.36-1.06-0.72-1.59-1.08c-0.39-0.32-0.79-0.63-1.18-0.95c-1.47-1.04-2.93-2.07-4.4-3.11
			c-8.11-8.81-19.32-10.8-30.14-13.46c-7.95-1.96-7.92-1.62-3.98-9.11c2.98-5.66,5.68-11.46,8.42-17.24
			c5.88-12.4,4.56-23.42-6.25-32.68c-3.18-2.73-6.13-5.73-9.19-8.6c-5.99-5.26-12.01-10.49-17.96-15.79
			c-24.16-21.51-52.88-25.13-83.45-21.11c-4.21,0.55-9.37,1.25-11.58,5.19c-7.87,14.04-14.49,28.57-11.21,45.43
			c0.6,2.89,0.79,5.95,1.92,8.62c1.33,3.15,0.95,4.85-2.23,6.42c-10.63,5.25-21.02,11.02-32.35,14.72
			c-8.35,2.73-8.08,2.64-9.63-6.09c-2.62-14.77-4.25-29.87-12.63-42.96c-8.13-11.27-18.67-19.16-32.21-22.73
			c-2.89-0.76-6.04-1.09-8.77,0.15c-6.94,3.16-12.82,1.29-18.46-3.02c-5.63-4.3-11.27-4.05-17.05-0.06
			c-21.56,14.88-42.83,30.16-63.58,46.17c0.91,0.35,1.81,0.75,2.71,1.12c0.45,0.19,0.9,0.36,1.36,0.53
			c-0.45-0.16-0.91-0.34-1.36-0.53c-0.9-0.37-1.8-0.77-2.71-1.12c-12.75,8.64-25.56,17.19-38.19,25.99c-3.5,2.44-6.71,5.4-8.82,9.28
			c-6.5,6.62-9.46,14.87-10.64,23.94c-1.05-0.18-1.76-0.18-2.36-0.43c-19.81-8.39-34.55-4.64-46.89,12.42
			c-5.76,7.96-10.88,16.38-15.3,25.18c-6.29,9.8-12.33,19.7-13.88,31.59c-2.01,2.43-1.41,5.04-0.76,7.79
			c3.48,14.69,11.97,25.99,23.58,35.2c29.73,23.6,74.14,27.34,105.99,8.57c14.39-8.48,24.24-20.05,22.61-38.23
			c-0.14-1.51,0.14-3.05,0.22-4.54c0.83-0.06,1.37-0.28,1.68-0.1c1.57,0.9,3.11,1.87,4.62,2.88c16.72,11.24,34.05,20.91,54.31,24.54
			c13.98,2.5,27,1.57,38.36-7.64c3.21-2.6,4.4-1.17,6.42,1.14c4.51,5.17,9.34,10.06,13.95,15.14c5.75,6.35,12.61,10.01,21.36,10.75
			c13,1.1,26.31,1.47,38.79,4.8c13.08,3.49,26.1,4.57,39.34,4.78c9.63,0.16,19.01-0.82,27.7-6.26
			c11.25-7.04,23.21-12.86,35.55-17.89c6.98-2.84,13.27-3.37,20.27,0.47c31.34,17.21,63.36,12.02,95.23,1.81
			c10.62-3.4,16.84-11.43,18.93-22.47c0.53-0.52,0.94-1.05,0.22-1.73C1243.79,820.04,1243.84,820.04,1243.89,820.04z
			 M1025.95,636.63c0.09-4.61,1.55-7.61,6.22-8.2c22.11-2.79,43.52-1.49,61.6,13.44c9.92,8.19,20.37,15.39,31.59,21.57
			c1.38-0.4,2.52-1.04,3.41-1.92c-0.89,0.89-2.03,1.52-3.41,1.92c19.23,15.81,18.51,21.33,3.86,41.73
			c-10.68,14.87-43.4,13.12-52.75-0.52c-8.57-12.49-20.28-21.64-35.53-25.26c-5.14-1.22-7.75-5.33-10.74-9.05
			C1026.1,659.45,1025.72,648.11,1025.95,636.63z M1076.68,739.3c-0.56,0.16-1.01,0.43-1.38,0.76
			C1075.67,739.73,1076.12,739.47,1076.68,739.3z M828.18,677.43c-0.79-1.79-2.12-2.95-3.71-3.01
			C826.06,674.49,827.39,675.65,828.18,677.43c14.43-8.61,27.25-19.36,39.76-30.44c8.26-7.31,16.69-11.74,28.04-7.56
			c3.04,1.12,7.01,1.06,10.2,0.22c16.47-4.36,27.35,3.07,35.81,16.15c1.69-2.18,4.17-2.07,6.51-2.36c0.43-0.05,0.85-0.12,1.26-0.22
			c-0.41,0.1-0.83,0.17-1.26,0.22c-2.34,0.3-4.82,0.18-6.51,2.36c4.11,18.29,1.14,35.79-5.95,52.82c-1.26,3.02-3.22,5.68-6.27,7.01
			c-6.91,3.01-8.26,8.51-7.29,15.21c0,0,0,0,0,0c1.22,12.15-0.14,23.57-9.19,32.84c-9.41,5.11-18.64,10.6-29.46,12.48
			c-24.72,4.29-48.74,2.39-71.86-7.83c0,0,0,0,0,0c-7.86-4.64-15.37-9.68-21.5-16.63c-12.28-13.93-13.38-24.31-4.05-40.92
			c0,0,0,0,0,0C798.25,697.04,814.13,688.38,828.18,677.43z M808.58,773.38c0.75-0.17,1.37-0.46,1.87-0.87
			C809.95,772.93,809.32,773.21,808.58,773.38z M811.58,770.86c0,0.01-0.01,0.02-0.02,0.03
			C811.57,770.88,811.58,770.88,811.58,770.86z M773.25,846.95c-23.54,1.67-46.43-2.59-65.33-18.59
			c-7.02-5.95-11.44-13.62-11.76-23.18c5.14-12.46,15.52-20.29,25.29-28.66c-1.24-1.09-2.54-1.83-3.87-2.34
			c1.33,0.51,2.63,1.25,3.87,2.34c18.05-15.08,36.2-9.75,54.37-0.29c9.76,6.76,18.29,14.75,24.73,24.81
			C810.55,825.74,799.86,845.06,773.25,846.95z M1084.18,838.89c-11.37,3-22.75,4.76-34.53,3.31c-6.16-0.76-12.3,0.1-18.43,0.85
			c-12.03,1.48-17.09-1.63-23.31-12.02c-5.88-9.81-13.42-18.23-23.43-24.38c-3.93-2.42-7.91-4.71-11.92-6.99
			c-2.75,1.33-5.58,2.1-8.51,2.49c2.93-0.39,5.76-1.15,8.51-2.49c-5.14-4.54-7.94-10.27-8.77-17.04
			c-0.65-5.37-1.35-10.74-2.03-16.11c0.2-11.01-2.22-22.21,2.51-32.87c0.22-0.4,0.44-0.8,0.66-1.2c0.24-0.49,0.48-0.98,0.72-1.47
			c0.35-0.46,0.69-0.93,1.04-1.39c0.35-0.23,0.51-0.55,0.5-0.96c4.08-4.49,9-7.46,14.77-9.56c12.17-4.44,22.98-11.52,32.6-20.02
			c5.51-4.88,9.41-3.66,14.12,0.34c8.59,7.3,16.13,15.58,22.75,24.65c6.09,8.34,15.09,13.21,22.6,19.85c0-1.65,0.34-2.89,1.12-3.69
			c-0.78,0.81-1.12,2.04-1.12,3.69c8.17,9.57,15.9,19.48,23.11,29.79c7.63,14.1,13.79,28.53,9.96,45.16
			C1103.73,830.39,1095.27,835.96,1084.18,838.89z M1156.87,826c-8.36-3.06-16.46-6.84-24.68-10.29c-0.04,0.49-0.11,0.93-0.21,1.32
			c0.1-0.39,0.18-0.83,0.21-1.32c-3.83-5.34-4.69-11.61-5.71-17.87c-1.56-9.57-2.78-19.3-9.1-27.31
			c-3.45-8.13-1.04-15.06,4.63-21.11c2.92-3.12,6.25-5.85,9.39-8.76c12.63-6.71,23.81-1.48,34.93,4.24l0,0
			c13.19,11.69,28.32,20.34,43.84,28.47c4.99,2.61,9.4,6.33,14.08,9.54c1.53,2.27,3.22,4.44,4.56,6.82
			c5.83,10.37,4.63,18.24-3.91,26.5c-1.31,1.26-2.65,2.49-3.98,3.73h0C1200.74,834.47,1179.1,834.14,1156.87,826z"/>
		<linearGradient id="SVGID_6_" gradientUnits="userSpaceOnUse" x1="997.1036" y1="715.6667" x2="997.1036" y2="767.8419">
			<stop  offset="0" style="stop-color:#DF7246"/>
			<stop  offset="0.9996" style="stop-color:#797065"/>
		</linearGradient>
		<path class="st13" d="M1015.27,715.92c-4.3-1.24-6.72,2.3-8.32,5.62c-2.72,5.65-7.88,8-12.98,10.59
			c-3.86,1.96-7.94,3.64-11.46,6.11c-7.3,5.1-9.62,16.97-5.1,23.95c4.19,6.47,12.58,7.57,21.44,2.37
			c14.12-8.3,20.29-21.08,20.22-37.17c0-0.91,0.05-1.83-0.01-2.74C1018.83,721.26,1019.29,717.08,1015.27,715.92z"/>
		<linearGradient id="SVGID_7_" gradientUnits="userSpaceOnUse" x1="1004.7137" y1="769.9321" x2="1004.7137" y2="805.6721">
			<stop  offset="0" style="stop-color:#DF7246"/>
			<stop  offset="0.9996" style="stop-color:#797065"/>
		</linearGradient>
		<path class="st14" d="M1013.59,773.68c0.19-1.63,0.93-4.58-1.9-3.52c-5.95,2.24-11.65,5.23-15.94,10.23
			c-1.34,1.56-0.84,3.13,0.35,4.28c5.03,4.83,8.74,10.14,9.56,17.44c0.31,2.73,3.52,4.16,6.58,3.33c2.74-0.75,2.48-3.08,1.73-5.05
			C1010.62,791.49,1012.27,782.59,1013.59,773.68z"/>
		<linearGradient id="SVGID_8_" gradientUnits="userSpaceOnUse" x1="1046.7639" y1="813.4387" x2="1046.7639" y2="831.5157">
			<stop  offset="0" style="stop-color:#DF7246"/>
			<stop  offset="0.9996" style="stop-color:#797065"/>
		</linearGradient>
		<path class="st15" d="M1041.2,813.46c-2.99-0.03-6.57-0.35-6.77,3.85c-0.2,4.43-0.96,9.77,4.51,11.75
			c4.01,1.44,8.47,1.63,13.21,2.46c2.87-0.51,7.77,0.72,7.02-5.09C1058.62,822.16,1045.97,813.5,1041.2,813.46z"/>
		<linearGradient id="SVGID_9_" gradientUnits="userSpaceOnUse" x1="1084.9457" y1="811.3688" x2="1084.9457" y2="824.8007">
			<stop  offset="0" style="stop-color:#DF7246"/>
			<stop  offset="0.9996" style="stop-color:#797065"/>
		</linearGradient>
		<path class="st16" d="M1091.99,811.64c-3.31,0.88-6.61,2.05-10.1,1.57c-5.61-0.78-8.22,1.66-8.01,6.65
			c-1.13,4.2,1.06,6.08,3.65,4.22c5.07-3.64,10.42-6.05,16.4-7.5c1.49-0.36,2.95-1.77,2.16-3.67
			C1095.35,811.11,1093.68,811.19,1091.99,811.64z"/>
		<linearGradient id="SVGID_10_" gradientUnits="userSpaceOnUse" x1="1029.4763" y1="784.5636" x2="1029.4763" y2="799.4646">
			<stop  offset="0" style="stop-color:#DF7246"/>
			<stop  offset="0.9996" style="stop-color:#797065"/>
		</linearGradient>
		<path class="st17" d="M1029.95,784.56c-4.24-0.06-5.42,4.49-5.67,8.21c-0.31,4.75,3.4,6.57,7.1,6.69
			c4.12,0.13,2.66-3.88,3.31-6.36C1033.86,789.77,1034.8,784.63,1029.95,784.56z"/>
		<linearGradient id="SVGID_11_" gradientUnits="userSpaceOnUse" x1="1144.9283" y1="756.7906" x2="1144.9283" y2="791.2554">
			<stop  offset="0" style="stop-color:#DF7246"/>
			<stop  offset="0.9996" style="stop-color:#797065"/>
		</linearGradient>
		<path class="st18" d="M1162.02,783.95c0.35-3.02-2.33-4.34-4.66-5.21c-7.77-2.92-13.13-8.03-15.71-16.02
			c-0.41-1.26-1.33-2.4-2.18-3.46c-2.21-2.73-4.91-3.24-7.86-1.29c-2.63,1.74-4.93,4.08-3.21,7.38c2.57,4.92,2.15,10.22,2.85,15.39
			c1.17,8.64,3.4,10.54,12.02,10.53c4.61-0.11,9.1-0.84,13.41-2.54C1159.07,787.78,1161.7,786.74,1162.02,783.95z"/>
		<linearGradient id="SVGID_12_" gradientUnits="userSpaceOnUse" x1="1169.8958" y1="801.1326" x2="1169.8958" y2="823.0867">
			<stop  offset="0" style="stop-color:#DF7246"/>
			<stop  offset="0.9996" style="stop-color:#797065"/>
		</linearGradient>
		<path class="st19" d="M1169.34,803.46c-2.97-1.8-6.01-3.48-9.52-1.29c-3.46,2.16-4.44,5.57-4.59,9.36
			c-0.11,4.71,2.48,7.33,6.86,7.85c5.88,0.7,11.72,1.46,17.39,3.26c1.51,0.48,3.34,0.88,4.47-0.56c1.31-1.67,0.38-3.47-0.5-5.09
			C1180.18,810.98,1175.05,806.91,1169.34,803.46z"/>
		<linearGradient id="SVGID_13_" gradientUnits="userSpaceOnUse" x1="1200.1443" y1="803.454" x2="1200.1443" y2="819.9555">
			<stop  offset="0" style="stop-color:#DF7246"/>
			<stop  offset="0.9996" style="stop-color:#797065"/>
		</linearGradient>
		<path class="st20" d="M1208.79,803.92c-4.86,5.68-11.68,5.47-18.16,6.41c-1.6,0.23-3.12,1.03-3.39,2.92
			c-0.3,2.08,0.79,3.68,2.51,4.46c2.25,1.03,4.7,1.61,6.67,2.25c6.69-1.31,12.65-2.83,15.97-8.96c1.22-2.25,0.82-4.46-0.61-6.46
			C1211.04,803.52,1209.55,803.03,1208.79,803.92z"/>
		<linearGradient id="SVGID_14_" gradientUnits="userSpaceOnUse" x1="1166.5337" y1="765.3539" x2="1166.5337" y2="779.3168">
			<stop  offset="0" style="stop-color:#DF7246"/>
			<stop  offset="0.9996" style="stop-color:#797065"/>
		</linearGradient>
		<path class="st21" d="M1172.61,779.32c1-0.21,2.27-0.17,3.14-0.74c0.75-0.49,0.58-1.72-0.24-2.33
			c-5.09-3.78-9.87-8.04-15.68-10.75c-0.67-0.31-1.92-0.12-2.54,0.34c-0.84,0.61-0.35,1.62,0.2,2.36
			C1161.39,773.37,1165.71,777.95,1172.61,779.32z"/>
		<linearGradient id="SVGID_15_" gradientUnits="userSpaceOnUse" x1="731.4007" y1="802.2133" x2="731.4007" y2="829.5637">
			<stop  offset="0" style="stop-color:#DF7246"/>
			<stop  offset="0.9996" style="stop-color:#797065"/>
		</linearGradient>
		<path class="st22" d="M723.4,805.9c-1.94-3.87-6.34-5.19-10.49-1.54c-3.99,3.52-4.46,7.57-0.94,11.38
			c7.54,8.18,16.83,13.24,28.14,13.8c4.36,0.21,8.44-0.94,13.1-5.33C738.43,824.27,729.36,817.76,723.4,805.9z"/>
		<linearGradient id="SVGID_16_" gradientUnits="userSpaceOnUse" x1="758.0541" y1="782.416" x2="758.0541" y2="803.3548">
			<stop  offset="0" style="stop-color:#DF7246"/>
			<stop  offset="0.9996" style="stop-color:#797065"/>
		</linearGradient>
		<path class="st23" d="M769.05,796.04c1.71-4.73-2.58-7.34-5.38-10.15c-1.96-1.97-4.61-3.29-7.32-3.43
			c-3.84-0.2-10.08,0.32-9.65,3.94c0.66,5.61,4.68,10.85,7.5,16.13c0.36,0.67,2.09,0.61,2.95,0.83
			C762.23,802.35,767.22,801.09,769.05,796.04z"/>
		<linearGradient id="SVGID_17_" gradientUnits="userSpaceOnUse" x1="768.0773" y1="826.6714" x2="768.0773" y2="834.9516">
			<stop  offset="0" style="stop-color:#DF7246"/>
			<stop  offset="0.9996" style="stop-color:#797065"/>
		</linearGradient>
		<path class="st24" d="M770.54,826.69c-3.94,0.33-8.44,1-9.43,5.27c-0.65,2.79,3.38,1.99,5.61,2.99c3.1-1.09,7.59-0.72,8.36-5.26
			C775.45,827.48,772.74,826.51,770.54,826.69z"/>
		<linearGradient id="SVGID_18_" gradientUnits="userSpaceOnUse" x1="917.6492" y1="650.484" x2="917.6492" y2="706.4303">
			<stop  offset="0" style="stop-color:#DF7246"/>
			<stop  offset="0.9996" style="stop-color:#797065"/>
		</linearGradient>
		<path class="st25" d="M908.86,679.81c-1.05,5.68-3.22,10.93-5.49,16.2c-2.78,6.45-0.96,9.34,6.09,10.15
			c15.89,1.83,24.11-5.58,24.18-21.79c0.06-6.48-0.92-12.82-3.59-18.73c-3.96-8.77-10.57-14.29-20.43-15.07
			c-2.65-0.21-5.74-0.21-7.31,2.67c-1.6,2.94,0.09,5.27,2.05,7.34C909.59,666.12,910.17,672.72,908.86,679.81z"/>
		<linearGradient id="SVGID_19_" gradientUnits="userSpaceOnUse" x1="820.5248" y1="696.3669" x2="820.5248" y2="742.3583">
			<stop  offset="0" style="stop-color:#DF7246"/>
			<stop  offset="0.9996" style="stop-color:#797065"/>
		</linearGradient>
		<path class="st26" d="M810.3,739.52c4.92,2.39,10.74,4.83,15.36,0.27c4.66-4.59,0.6-9.43-1.84-13.62
			c-2.58-4.43-2.02-7.39,2.33-10.28c4.95-3.29,9.26-7.42,12.75-12.31c1.18-1.66,2.54-3.45,1.28-5.61c-1.1-1.89-3.11-1.62-4.92-1.56
			c-7.83,0.27-15.43,1.73-22.64,4.81c-8.2,3.5-12.39,9.74-12.25,22.11C800.6,728.04,802.25,735.61,810.3,739.52z"/>
		<linearGradient id="SVGID_20_" gradientUnits="userSpaceOnUse" x1="870.5788" y1="678.1196" x2="870.5788" y2="703.5996">
			<stop  offset="0" style="stop-color:#DF7246"/>
			<stop  offset="0.9996" style="stop-color:#797065"/>
		</linearGradient>
		<path class="st27" d="M866.71,702.02c2.3-6.35,7.78-9.14,12.17-13.27c3.72-3.5,2.84-9-1.03-10.21
			c-7.68-2.4-18.28,5.76-17.94,15.65c0.26,1.16,0.57,4.16,1.65,6.86C862.56,703.56,865.71,704.79,866.71,702.02z"/>
		<linearGradient id="SVGID_21_" gradientUnits="userSpaceOnUse" x1="856.5154" y1="743.8953" x2="856.5154" y2="760.8802">
			<stop  offset="0" style="stop-color:#DF7246"/>
			<stop  offset="0.9996" style="stop-color:#797065"/>
		</linearGradient>
		<path class="st28" d="M852.27,758.54c4.08,2.69,8.5,3.21,12.88,0.79c2.17-1.2,3.87-3.8,1.67-5.55c-5.2-4.12-9.49-10.14-15.44-9.8
			c-3.96-0.24-6.43-0.1-6.18,2.7C845.65,751.62,848.05,755.75,852.27,758.54z"/>
		<linearGradient id="SVGID_22_" gradientUnits="userSpaceOnUse" x1="859.6363" y1="717.7718" x2="859.6363" y2="729.5592">
			<stop  offset="0" style="stop-color:#DF7246"/>
			<stop  offset="0.9996" style="stop-color:#797065"/>
		</linearGradient>
		<path class="st29" d="M856.31,729.55c4.2,0.23,11.4-4.78,11.5-8.17c0.11-3.36-2.72-3.02-4.61-3.6
			c-5.56-0.17-11.53,3.15-11.74,6.53C851.27,727.64,852.95,729.37,856.31,729.55z"/>
		<linearGradient id="SVGID_23_" gradientUnits="userSpaceOnUse" x1="1068.8004" y1="650.8716" x2="1068.8004" y2="679.6403">
			<stop  offset="0" style="stop-color:#DF7246"/>
			<stop  offset="0.9996" style="stop-color:#797065"/>
		</linearGradient>
		<path class="st30" d="M1060.76,671.83c5.24,0.87,9.87,2.04,14.05,5.94c2.82,2.63,7.42,2.57,10.54-0.76
			c2.2-2.35,0.68-4.89-1.17-6.63c-5.3-4.97-10.64-9.92-16.29-14.48c-3.35-2.7-7.34-4.59-11.81-4.99c-1.92-0.15-3.66,0.04-4.56,2.12
			C1049.56,657.54,1055.89,671.02,1060.76,671.83z"/>
		<linearGradient id="SVGID_24_" gradientUnits="userSpaceOnUse" x1="1100.0293" y1="683.089" x2="1100.0293" y2="701.9711">
			<stop  offset="0" style="stop-color:#DF7246"/>
			<stop  offset="0.9996" style="stop-color:#797065"/>
		</linearGradient>
		<path class="st31" d="M1101.2,701.97c4.59-0.21,6.76-3.15,7.27-6.74c0.22-5.47-7.08-12.02-12.61-12.14
			c-2.88-0.06-4.08,1.54-4.27,4.18C1091.15,693.71,1096.57,702.18,1101.2,701.97z"/>
	</g>
	<path class="st32" d="M1040.34,1020.82c0.01,0.27,0.02,0.54,0.03,0.81c-0.16-0.01-0.32-0.02-0.48-0.03c0.2-0.23,0.39-0.46,0.59-0.7
		C1040.47,1020.9,1040.34,1020.82,1040.34,1020.82z"/>
	<path class="st3" d="M959.8,1013.19c-94.41,0-188.81,0-283.22-0.03c-0.87,0-2.26,0.65-2.56-0.55c-0.39-1.56-0.31-3.26,0.02-4.87
		c0.09-0.43,0.59-0.38,0.95-0.38c0.6-0.01,1.19,0,1.79,0c188.66,0,377.32,0,565.98,0.03c0.94,0,2.47-0.69,2.77,0.54
		c0.37,1.54,0.07,3.25-0.03,4.88c-0.03,0.44-0.57,0.38-0.93,0.38c-0.67,0.01-1.34,0.01-2.02,0.01
		C1148.31,1013.19,1054.05,1013.19,959.8,1013.19z"/>
	<path class="st3" d="M715.25,949.69c5.8,1.8,10.28,4.5,13.44,9.02c10.38,14.87,1.05,35.45-17.15,37.9c-2.52,0.34-5.04,0.5-7.59,0.5
		c-9.33-0.02-18.66-0.03-27.99,0.02c-1.41,0.01-1.93-0.31-1.92-1.84c0.05-27.32,0.04-54.63,0.01-81.95c0-1.39,0.43-1.77,1.79-1.76
		c9.25,0.05,18.51-0.02,27.76,0.06c3.21,0.03,6.37,0.67,9.41,1.79c15.29,5.62,15.67,24.2,8.58,31.64
		C719.89,946.86,717.93,948.29,715.25,949.69z M682.25,971.81c0,5.37,0.02,10.74-0.02,16.11c-0.01,1.13,0.16,1.8,1.55,1.79
		c7.98-0.09,15.97,0.12,23.93-0.24c6.42-0.29,11.93-2.79,14.9-9.01c6.04-12.63-1.88-25.92-15.83-26.4
		c-7.6-0.26-15.21-0.08-22.82-0.17c-1.4-0.02-1.76,0.48-1.75,1.81C682.28,961.07,682.25,966.44,682.25,971.81z M682.25,933.03
		c0,4.11,0.01,8.21-0.01,12.32c0,0.89,0.01,1.6,1.26,1.57c7.53-0.17,15.1,0.5,22.6-0.32c7.57-0.82,11.44-5.49,11.59-13.13
		c0.15-7.72-3.65-12.71-11.07-13.91c-7.7-1.25-15.5-0.33-23.25-0.55c-1.29-0.04-1.12,0.9-1.12,1.71
		C682.25,924.82,682.25,928.92,682.25,933.03z"/>
	<path class="st3" d="M1201.72,998.04c-24.9-0.01-43.97-19.01-43.94-43.77c0.03-24.62,19.12-43.6,43.89-43.63
		c25.04-0.04,43.89,18.98,43.85,44.25C1245.49,979.19,1226.34,998.05,1201.72,998.04z M1166.62,954.14c0,1.34-0.06,2.69,0.02,4.03
		c0.06,1.11,0.23,2.23,0.45,3.32c2.67,13.24,9.91,22.88,22.93,27.11c13.16,4.28,25.51,2.19,35.82-7.44
		c9.31-8.71,12.1-19.87,10.73-32.29c-1.79-16.23-14.97-29.2-31.13-30.59C1183.53,916.39,1166.51,932.07,1166.62,954.14z"/>
	<path class="st3" d="M825.6,997.1c-2.91,0-5.67-0.07-8.43,0.03c-1.23,0.04-1.68-0.77-2.27-1.52c-4.85-6.25-9.73-12.48-14.52-18.77
		c-0.88-1.16-1.74-1.52-3.18-1.37c-4.53,0.48-9.1,0.36-13.65,0.28c-1.48-0.03-1.93,0.42-1.91,1.9c0.07,5.82-0.02,11.65,0.06,17.47
		c0.02,1.54-0.36,2.18-1.97,2c-1.98-0.22-4.57,0.82-5.82-0.42c-1.25-1.24-0.38-3.83-0.39-5.82c-0.03-25.61,0-51.22-0.06-76.82
		c0-1.92,0.38-2.58,2.43-2.49c8.42,0.35,16.89-0.69,25.25,0.86c12.07,2.23,21.17,8.48,24.66,20.65c3.52,12.26,2.03,23.85-7.26,33.51
		c-2.67,2.78-5.94,4.76-9.53,6.14c-1.38,0.53-1.28,0.95-0.47,1.97c5.33,6.73,10.61,13.5,15.88,20.27
		C824.88,995.53,825.53,995.99,825.6,997.1z M781.68,943.77c0,7.61,0.03,15.23-0.03,22.84c-0.01,1.41,0.32,1.97,1.85,1.92
		c3.65-0.13,7.32-0.01,10.97-0.13c2.99-0.1,5.94-0.59,8.8-1.51c9.88-3.17,14.68-10.29,15.42-20.33
		c0.95-12.77-4.03-23.87-18.92-26.83c-5.31-1.06-10.71-0.61-16.08-0.78c-1.79-0.06-2.06,0.63-2.05,2.2
		C781.72,928.69,781.68,936.23,781.68,943.77z"/>
	<path class="st32" d="M1056.71,997.1c2.98-7.25,5.8-14.14,8.63-21.02c8.79-21.38,17.58-42.76,26.38-64.14
		c0.23-0.55,0.41-1.12,0.68-1.65c0.41-0.8,0.86-0.73,1.24,0.04c0.23,0.47,0.43,0.95,0.62,1.44c11.49,27.85,22.97,55.71,34.46,83.56
		c0.2,0.47,0.37,0.96,0.69,1.77c-2.71,0-5.2,0-7.69,0c-1.14,0-1.19-1-1.48-1.7c-1.54-3.8-3.09-7.6-4.53-11.44
		c-0.46-1.22-1.06-1.69-2.42-1.68c-13.51,0.05-27.02,0.05-40.54,0c-1.36-0.01-1.97,0.46-2.44,1.69c-1.5,3.9-3.15,7.74-4.66,11.63
		c-0.44,1.13-1.02,1.63-2.3,1.55C1061.27,997.02,1059.18,997.1,1056.71,997.1z M1093.21,928.12c-0.37,0.52-0.52,0.67-0.6,0.86
		c-6.01,14.77-11.99,29.55-18.03,44.3c-0.62,1.52,0.07,1.6,1.25,1.59c11.34-0.02,22.67-0.04,34.01,0.02
		c1.84,0.01,1.93-0.55,1.31-2.07c-2.74-6.69-5.4-13.41-8.09-20.11C1099.83,944.64,1096.59,936.56,1093.21,928.12z"/>
	<path class="st32" d="M861.71,997.1c1.17-2.86,2.24-5.46,3.31-8.06c10.6-25.79,21.2-51.59,31.83-77.37
		c0.28-0.68,0.23-1.9,1.25-1.84c0.8,0.04,0.81,1.14,1.08,1.8c11.5,27.84,22.98,55.69,34.51,83.53c0.61,1.47,0.7,2.16-1.22,1.97
		c-2.14-0.21-4.66,0.76-6.34-0.37c-1.6-1.08-1.74-3.67-2.55-5.59c-1.01-2.4-1.99-4.83-2.9-7.27c-0.41-1.11-0.93-1.63-2.24-1.62
		c-13.58,0.05-27.17,0.06-40.75,0c-1.4-0.01-1.94,0.57-2.4,1.74c-1.43,3.68-3.06,7.29-4.4,11.01c-0.62,1.72-1.51,2.28-3.28,2.12
		C865.78,996.97,863.91,997.1,861.71,997.1z M898.15,928.01c-0.28,0.48-0.42,0.65-0.49,0.84c-5.97,14.7-11.92,29.42-17.95,44.1
		c-0.75,1.84-0.04,1.94,1.47,1.94c11.19-0.03,22.37-0.06,33.56,0.02c1.98,0.01,2.04-0.55,1.38-2.17
		c-4.43-10.91-8.77-21.85-13.15-32.77C901.41,936.04,899.82,932.14,898.15,928.01z"/>
	<path class="st3" d="M996.45,998.06c-12.34-0.04-22.08-4.86-28.7-15.52c-0.81-1.31-0.81-1.99,0.71-2.63
		c1.71-0.72,3.35-2.37,4.98-2.33c1.66,0.04,2.13,2.57,3.2,3.94c7.8,9.93,20.95,10.67,29.25,7.29c9.84-4.01,11.97-16.79,4.13-24.27
		c-3.01-2.87-6.68-4.72-10.38-6.52c-6.03-2.94-12.25-5.49-17.89-9.22c-10.28-6.79-11.46-17.44-8.23-25.68
		c2.57-6.56,7.74-10.3,14.49-11.79c9.12-2,21.13-0.36,28.35,10.19c0.97,1.42,0.89,2.07-0.6,2.84c-1.52,0.79-2.9,2.47-4.38,2.53
		c-1.45,0.05-2.05-2.26-3.16-3.43c-4.92-5.14-13.39-7.12-20.06-4.52c-4.48,1.74-7.2,5.04-7.88,9.78c-0.69,4.81,0.52,9.05,4.52,12.18
		c3.56,2.79,7.68,4.58,11.72,6.5c5.86,2.79,11.81,5.4,17.05,9.32c8.15,6.1,10.66,14.36,8.8,23.98c-1.82,9.4-8.41,14.2-17.25,16.4
		C1002.28,997.82,999.39,998.12,996.45,998.06z"/>
	<path class="st32" d="M1144.06,1048.55c-7.58-0.02-13.32-5.8-13.27-13.36c0.05-7.45,5.8-13.09,13.32-13.07
		c7.5,0.02,13.27,5.72,13.29,13.12C1157.42,1042.81,1151.64,1048.57,1144.06,1048.55z M1144.2,1044.77c5.16-0.04,8.98-4.11,8.93-9.5
		c-0.05-5.39-3.92-9.42-9.05-9.43c-5.2-0.02-9.1,4.17-9,9.66C1135.19,1040.97,1138.97,1044.82,1144.2,1044.77z"/>
	<path class="st32" d="M688.14,1033.87c3.86,2.23,5.1,4.83,4.29,8.51c-0.73,3.36-3.45,5.59-7.31,5.75c-3.2,0.13-6.41,0-9.61,0.06
		c-1.09,0.02-1.4-0.39-1.4-1.43c0.03-7.67,0.03-15.35,0-23.02c-0.01-1.15,0.5-1.37,1.49-1.36c2.68,0.04,5.37-0.07,8.04,0.05
		c2.88,0.13,5.51,0.95,6.66,3.98C691.39,1029.3,690.84,1031.83,688.14,1033.87z M678.17,1040.21c0,4.42,0,4.42,4.42,4.41
		c0.74,0,1.5,0.04,2.23-0.05c2.21-0.27,3.46-1.65,3.59-3.87c0.19-3.21-1.49-4.75-5.23-4.78
		C678.17,1035.88,678.17,1035.88,678.17,1040.21z M681.43,1032.51c0.6,0,1.2,0.02,1.79,0c2.36-0.1,3.41-1.08,3.48-3.18
		c0.07-2.16-1.11-3.15-3.12-3.28c-1.41-0.1-2.93-0.41-4.23-0.03c-2.53,0.74-0.71,2.98-1.13,4.5c-0.22,0.78-0.48,2.1,1.19,2
		c0.15-0.01,0.3,0,0.45,0C680.39,1032.52,680.91,1032.52,681.43,1032.51z"/>
	<path class="st32" d="M1098.52,1035.26c0-3.73,0.09-7.46-0.04-11.18c-0.07-1.77,0.89-1.7,2.08-1.68c1.12,0.02,2.21-0.23,2.15,1.6
		c-0.12,3.65,0.05,7.31-0.08,10.96c-0.05,1.47,0.45,1.76,1.76,1.73c2.91-0.07,5.82-0.09,8.72,0c1.41,0.05,1.78-0.48,1.76-1.81
		c-0.07-3.58,0.08-7.16-0.07-10.73c-0.08-1.92,1.01-1.72,2.26-1.76c1.32-0.04,2.01,0.14,1.99,1.78c-0.09,7.45-0.1,14.91,0,22.37
		c0.03,1.79-0.91,1.68-2.09,1.66c-1.11-0.02-2.3,0.26-2.15-1.59c0.13-1.56-0.03-3.13,0.04-4.69c0.05-1.17-0.41-1.57-1.56-1.55
		c-2.98,0.05-5.97,0.05-8.95,0c-1.22-0.02-1.77,0.35-1.69,1.65c0.09,1.56-0.07,3.14,0.04,4.69c0.13,1.93-1.21,1.42-2.23,1.48
		c-1.09,0.06-2.03,0.14-1.98-1.52C1098.6,1042.86,1098.52,1039.06,1098.52,1035.26z"/>
	<path class="st32" d="M889.16,1021.78c5.73,5.98,11,11.48,16.7,17.43c0-5.28,0.05-9.94-0.03-14.6c-0.03-1.5,0.12-2.28,1.98-2.28
		c1.87-0.01,1.99,0.79,1.98,2.28c-0.06,7.89-0.03,15.79-0.03,24.39c-5.71-5.96-11.01-11.48-16.77-17.48c0,5.28-0.11,9.88,0.05,14.46
		c0.07,2.01-0.68,2.4-2.43,2.24c-0.98-0.09-1.48-0.24-1.47-1.37C889.17,1038.72,889.16,1030.59,889.16,1021.78z"/>
	<path class="st32" d="M721.59,1047.9c-3.51,1.1-5.68-0.14-7.12-3.09c-0.97-1.99-2.38-3.26-4.9-2.84c-1.06,0.18-1.44,0.49-1.36,1.51
		c0.05,0.74,0.01,1.49,0.01,2.24c0,2.64-0.08,2.66-2.8,2.5c-0.93-0.06-1.32-0.31-1.32-1.3c0.03-7.76,0.03-15.53,0-23.29
		c0-1.05,0.51-1.24,1.39-1.22c2.68,0.04,5.38-0.11,8.05,0.29c4.08,0.61,6.97,3.16,7.87,6.96c1.01,4.25-0.27,8.25-3.61,10.52
		c-1.11,0.75-0.95,1.17-0.29,2.03C718.89,1044.02,720.18,1045.92,721.59,1047.9z M708.21,1032.18c0,0.89-0.01,1.78,0,2.67
		c0.08,4.16-0.88,3.94,3.97,3.53c2.23-0.19,4.06-1.14,4.82-3.36c0.83-2.43,0.78-4.85-0.93-6.95c-1.27-1.55-5.77-2.81-7.23-1.78
		c-1.45,1.03-0.35,2.87-0.61,4.33C708.13,1031.13,708.21,1031.66,708.21,1032.18z"/>
	<path class="st32" d="M1072.41,1034.32c2.43-3.08,4.87-6.16,7.29-9.25c2.36-3.03,2.35-3.03,6.61-2.4c-2.61,3.3-5.08,6.53-7.69,9.66
		c-1.02,1.23-1.1,2.08-0.08,3.39c3.06,3.93,5.95,7.99,8.96,12.05c-3.58,1.02-4.53,0.71-6.51-1.98c-1.81-2.46-3.67-4.9-5.43-7.4
		c-0.73-1.03-1.08-0.87-1.96-0.06c-2.3,2.11-1.77,4.79-1.66,7.32c0.09,2.02-0.45,2.76-2.56,2.6c-1.4-0.1-1.74-0.52-1.73-1.85
		c0.06-7.39,0.09-14.78-0.02-22.18c-0.03-1.8,0.81-1.83,2.16-1.85c1.43-0.02,2.19,0.21,2.12,1.92c-0.13,3.27-0.04,6.55-0.04,9.83
		C1072.06,1034.19,1072.23,1034.25,1072.41,1034.32z"/>
	<path class="st32" d="M1188.6,1031.94c0,2.91,0.2,5.84-0.04,8.73c-0.39,4.73-3.97,7.73-9.01,7.88c-5.7,0.17-9.63-2.38-10.26-7.21
		c-0.77-5.93-0.25-11.93-0.24-17.9c0-1.9,1.72-0.78,2.64-1c1.18-0.29,1.52,0.38,1.51,1.51c-0.05,4.18-0.02,8.36-0.02,12.55
		c0,0.75-0.01,1.49,0.01,2.24c0.1,4.2,1.9,6.07,5.78,6.04c3.75-0.04,5.57-1.91,5.62-5.98c0.05-4.7,0.07-9.41-0.02-14.11
		c-0.03-1.63,0.24-2.32,2.14-2.36c2.09-0.04,2.08,0.97,2.05,2.45c-0.06,2.39-0.02,4.78-0.02,7.17
		C1188.69,1031.94,1188.65,1031.94,1188.6,1031.94z"/>
	<path class="st3" d="M1229.15,1035.25c0-3.73,0.04-7.46-0.02-11.19c-0.02-1.24,0.36-1.7,1.65-1.68c4.47,0.07,8.95,0.08,13.43-0.01
		c1.49-0.03,1.51,0.76,1.48,1.82c-0.03,1.05,0.18,2.07-1.52,2.01c-3.05-0.12-6.12,0.02-9.17-0.06c-1.26-0.03-1.71,0.35-1.66,1.64
		c0.09,2.46,0.08,4.92,0,7.38c-0.04,1.2,0.43,1.54,1.56,1.51c2.61-0.06,5.22,0.05,7.83-0.04c1.49-0.05,1.46,0.78,1.47,1.84
		c0,1.06,0,1.89-1.47,1.83c-2.61-0.1-5.22,0.03-7.83-0.1c-1.66-0.08-1.62,0.89-1.53,1.99c0.09,1.04-0.6,2.5,1.52,2.42
		c3.2-0.12,6.42,0.04,9.62-0.06c1.46-0.05,1.74,0.53,1.72,1.82c-0.01,1.26-0.21,1.88-1.71,1.85c-4.62-0.09-9.25-0.07-13.87-0.01
		c-1.19,0.02-1.54-0.4-1.52-1.54C1229.19,1042.86,1229.15,1039.06,1229.15,1035.25z"/>
	<path class="st32" d="M1006.67,1035.33c0-3.73,0.06-7.47-0.03-11.2c-0.03-1.41,0.46-1.78,1.79-1.76c4.33,0.07,8.66,0.1,12.99-0.01
		c1.67-0.04,1.73,0.75,1.76,2.03c0.03,1.33-0.32,1.86-1.74,1.81c-2.98-0.1-5.97,0.02-8.96-0.05c-1.27-0.03-1.71,0.4-1.67,1.67
		c0.08,2.39,0.08,4.78,0,7.17c-0.04,1.25,0.38,1.73,1.66,1.69c2.54-0.07,5.08,0.05,7.61-0.05c1.45-0.06,1.73,0.55,1.74,1.84
		c0,1.31-0.29,1.9-1.74,1.84c-2.53-0.1-5.08,0.05-7.61-0.05c-2-0.08-1.57,1.27-1.64,2.4c-0.07,1.16,0.02,1.99,1.6,1.94
		c3.21-0.11,6.42,0.02,9.63-0.06c1.3-0.03,1.71,0.41,1.63,1.67c-0.07,1.07,0.15,2.04-1.53,2c-4.63-0.1-9.26-0.08-13.88-0.01
		c-1.31,0.02-1.64-0.45-1.62-1.68C1006.71,1042.8,1006.67,1039.07,1006.67,1035.33z"/>
	<path class="st32" d="M777.02,1026.17c-3.57,0-6.63-0.09-9.68,0.04c-1.63,0.07-1.79-0.66-1.79-1.98c0-1.27,0.21-1.88,1.69-1.86
		c5.41,0.08,10.83,0.03,16.67,0.03c-4.63,7.47-9.03,14.6-13.55,21.89c1.87,0.53,3.63,0.21,5.35,0.26c1.86,0.06,3.73,0.1,5.59-0.01
		c1.47-0.09,2.1,0.26,2.1,1.92c0,1.66-0.78,1.75-2.06,1.74c-5.81-0.04-11.61-0.02-17.93-0.02
		C768,1040.77,772.39,1033.67,777.02,1026.17z"/>
	<path class="st32" d="M878,1048.02c-2.57,0.37-4.82,0.68-5.42-2.45c-0.15-0.79-0.78-0.96-1.53-0.96c-2.98,0.03-5.97,0.03-8.95,0
		c-0.85-0.01-1.52,0.19-1.68,1.08c-0.56,3.13-2.8,2.58-5.19,2.37c3.76-8.75,7.45-17.35,11.38-26.49
		C870.52,1030.68,874.22,1039.25,878,1048.02z M866.55,1030.99c-1.33,3.16-2.45,5.84-3.58,8.5c-0.4,0.94-0.43,1.55,0.9,1.5
		c1.79-0.06,3.58-0.04,5.37,0c1,0.02,1.39-0.23,0.94-1.28C869.01,1036.97,867.89,1034.21,866.55,1030.99z"/>
	<path class="st32" d="M1033.8,1048.17c3.8-8.85,7.49-17.43,11.42-26.58c1.09,2.52,1.93,4.47,2.77,6.42
		c2.57,5.96,5.18,11.9,7.68,17.89c0.26,0.64,1.52,1.79,0.23,2.14c-1.15,0.32-3.36,0.98-3.78-0.61c-0.85-3.21-3.02-2.89-5.33-2.82
		c-1.27,0.04-2.54,0.08-3.81-0.01c-2.19-0.15-3.89-0.03-4.75,2.67C1037.65,1049.14,1035.55,1047.89,1033.8,1048.17z
		 M1049.26,1040.86c-1.34-3.23-2.6-6.27-4.09-9.86c-1.52,3.62-2.79,6.66-4.13,9.86C1043.88,1040.86,1046.44,1040.86,1049.26,1040.86
		z"/>
	<path class="st32" d="M731.18,1048.59c3.97-9.24,7.65-17.83,11.36-26.47c1,0.46,1.03,1.29,1.3,1.92c3.15,7.25,6.29,14.5,9.36,21.79
		c0.29,0.68,1.41,1.88,0.28,2.18c-1.2,0.32-3.34,1.09-3.91-0.77c-0.78-2.55-2.33-2.84-4.52-2.64c-1.48,0.14-2.99,0.11-4.47,0.01
		c-2.19-0.15-3.91-0.05-4.74,2.65C735.19,1049.3,733.07,1047.61,731.18,1048.59z M746.86,1040.98c-1.36-3.3-2.62-6.35-3.93-9.52
		c-0.69,0.95-3.8,7.91-4.03,8.62c-0.26,0.79,0.1,0.9,0.73,0.9C741.93,1040.97,744.23,1040.98,746.86,1040.98z"/>
	<path class="st32" d="M1209.08,1048.56c-3.4,0.02-6.3-1.11-8.4-3.87c-0.4-0.53-1.59-1.31-0.3-1.9c0.99-0.45,2.02-2.26,3.39-0.45
		c1.61,2.15,3.82,2.72,6.36,2.35c1.51-0.22,2.74-0.9,3.11-2.48c0.39-1.65-0.27-2.98-1.74-3.77c-1.77-0.95-3.63-1.73-5.43-2.64
		c-1.98-0.99-3.69-2.28-4.49-4.46c-1.24-3.41,0.2-7.07,3.35-8.53c3.5-1.62,8.57-0.34,10.28,2.54c0.41,0.69,0.34,1.2-0.34,1.41
		c-0.91,0.29-1.5,2.09-2.78,0.72c-0.68-0.73-1.41-1.36-2.39-1.57c-1.72-0.37-3.38-0.24-4.21,1.59c-0.83,1.83,0,3.24,1.62,4.11
		c2.09,1.14,4.33,2.02,6.4,3.18c3.45,1.94,4.77,5.37,3.63,8.95C1216.18,1046.77,1213.22,1048.53,1209.08,1048.56z"/>
	<path class="st32" d="M958.87,1048.56c-3.23-0.01-6.02-1.08-8.05-3.66c-0.43-0.55-1.86-1.33-0.54-2.07c0.95-0.54,2.09-2.4,3.53-0.4
		c1.58,2.19,3.88,2.64,6.39,2.24c1.49-0.24,2.71-0.96,3.03-2.57c0.31-1.57-0.3-2.85-1.68-3.59c-2.16-1.17-4.46-2.1-6.58-3.33
		c-3.15-1.82-4.44-4.79-3.66-7.92c0.71-2.84,2.59-4.53,5.42-4.98c3.3-0.53,6.23,0.22,8.39,3.03c0.45,0.59,0.55,1.16-0.21,1.42
		c-0.92,0.31-1.51,2.1-2.79,0.83c-0.94-0.94-1.9-1.67-3.25-1.77c-1.54-0.11-2.88,0.3-3.47,1.85c-0.62,1.63-0.05,3.02,1.42,3.83
		c2.15,1.19,4.46,2.1,6.6,3.3c3.28,1.84,4.55,4.63,3.88,8.04C966.56,1046.55,963.6,1048.56,958.87,1048.56z"/>
	<path class="st32" d="M1098.86,901.71c-2.29,0.11-4.08-0.94-5.8-2.15c-1.15-0.81-2.24-1.74-3.45-2.45c-1.86-1.09-3.37-0.7-4.57,1.1
		c-0.84,1.26-1.64,2.53-3.24,2.87c-0.76,0.16-1.51,0.18-1.63-0.92c-0.35-3.12,2.86-7.88,5.92-8.7c2.29-0.61,4.45-0.18,6.41,1.08
		c1.44,0.92,2.77,2.01,4.19,2.96c2.21,1.49,3.33,1.26,4.79-0.93c1.09-1.62,2.17-3.23,4.24-3.72c0.76-0.18,1.45-0.24,1.24,0.85
		c-0.55,2.86-1.14,5.71-3.18,7.98C1102.44,901.15,1100.78,901.83,1098.86,901.71z"/>
	<path class="st3" d="M987.83,1037.44c0,2.98-0.09,5.97,0.04,8.94c0.06,1.55-0.52,1.9-1.93,1.83c-1.23-0.07-2.27,0.16-2.23-1.76
		c0.12-6.04-0.03-12.08,0.09-18.11c0.03-1.8-0.52-2.4-2.25-2.19c-1.03,0.12-2.1-0.09-3.13,0.05c-1.93,0.26-2.46-0.55-2.3-2.36
		c0.09-1.03,0.34-1.45,1.42-1.44c5.52,0.04,11.03,0.06,16.55-0.01c1.55-0.02,1.42,0.89,1.4,1.89c-0.02,0.96,0.22,2.01-1.36,1.92
		c-1.56-0.09-3.13,0.05-4.69-0.04c-1.3-0.08-1.65,0.44-1.63,1.68C987.88,1031.03,987.83,1034.24,987.83,1037.44z"/>
	<path class="st32" d="M812.73,1035.18c0-3.73,0.08-7.46-0.03-11.18c-0.06-1.82,1.02-1.61,2.15-1.6c1.11,0.01,2.2-0.25,2.17,1.59
		c-0.1,5.96,0.1,11.93-0.1,17.89c-0.08,2.39,0.7,2.91,2.87,2.74c2.3-0.19,4.62,0.06,6.93-0.08c1.67-0.1,1.51,0.86,1.56,1.96
		c0.06,1.19-0.22,1.74-1.58,1.71c-4.1-0.08-8.2-0.09-12.3,0.01c-1.5,0.04-1.71-0.6-1.69-1.85
		C812.77,1042.64,812.73,1038.91,812.73,1035.18z"/>
	<path class="st32" d="M921.06,1044.17c1.34-3.51,4.45-5.51,6.96-7.99c1.52-1.5,1.39-2.34-0.11-3.61c-1.93-1.64-3.71-3.45-5.54-5.2
		c-0.57-0.54-1.05-1.12-0.27-1.88c0.78-0.76,1.34-0.27,1.88,0.3c1.91,1.99,3.86,3.94,5.71,5.98c0.95,1.05,1.63,1.18,2.63,0.05
		c1.77-2.01,3.66-3.92,5.53-5.85c0.55-0.57,1.1-1.4,2.02-0.5c0.88,0.86,0.2,1.47-0.4,2.05c-1.94,1.85-3.84,3.75-5.85,5.52
		c-1.11,0.98-1.05,1.58-0.03,2.65c2.46,2.57,5.49,4.63,7.18,7.89c0.12,0.24,0.25,0.48,0.53,1.01c-3.7-1.45-5.69-4.41-8.16-6.77
		c-2.5-2.39-1.67-2.39-4.2-0.08c-2.19,1.99-3.79,4.62-6.52,6.03c-0.43,0.22-0.78,0.76-1.38,0.38L921.06,1044.17z"/>
	<path class="st3" d="M799.63,1035.27c0,3.72-0.11,7.45,0.04,11.17c0.08,1.91-0.97,1.71-2.22,1.77c-1.36,0.06-1.98-0.22-1.96-1.8
		c0.08-7.45,0.09-14.9-0.01-22.35c-0.02-1.77,0.9-1.67,2.09-1.67c1.2,0,2.15-0.05,2.09,1.7
		C799.54,1027.82,799.63,1031.55,799.63,1035.27z"/>
	<path class="st3" d="M843.98,1035.34c0,3.72-0.09,7.45,0.04,11.17c0.06,1.74-0.84,1.72-2.05,1.69c-1.13-0.03-2.13,0.2-2.1-1.63
		c0.1-7.52,0.1-15.04,0-22.56c-0.02-1.84,1.02-1.56,2.13-1.61c1.28-0.05,2.07,0.11,2.02,1.77
		C843.89,1027.89,843.98,1031.62,843.98,1035.34z"/>
</g>
</svg>
